<mxfile host="app.diagrams.net" modified="2024-06-08T05:03:39.536Z" agent="Mozilla/5.0 (Windows NT 10.0; Win64; x64) AppleWebKit/537.36 (KHTML, like Gecko) Chrome/125.0.0.0 Safari/537.36" etag="_NdyOslBgSKaIsIRZcRu" version="24.5.2" type="github">
  <diagram name="第 1 页" id="EL4SOlCIEw369UxkG7nx">
    <mxGraphModel dx="1222" dy="1867" grid="1" gridSize="10" guides="1" tooltips="1" connect="1" arrows="1" fold="1" page="1" pageScale="1" pageWidth="827" pageHeight="1169" math="0" shadow="0">
      <root>
        <mxCell id="0" />
        <mxCell id="1" parent="0" />
        <mxCell id="VCK1Q4srkvo5amAOdL8o-1" value="" style="rounded=0;whiteSpace=wrap;html=1;fillColor=#fad7ac;strokeColor=#b46504;" vertex="1" parent="1">
          <mxGeometry x="90" y="-60" width="390" height="190" as="geometry" />
        </mxCell>
        <mxCell id="VCK1Q4srkvo5amAOdL8o-2" value="" style="rounded=0;whiteSpace=wrap;html=1;" vertex="1" parent="1">
          <mxGeometry x="480" y="-60" width="480" height="190" as="geometry" />
        </mxCell>
        <mxCell id="VCK1Q4srkvo5amAOdL8o-3" value="" style="rounded=0;whiteSpace=wrap;html=1;fillColor=#fad9d5;strokeColor=#ae4132;" vertex="1" parent="1">
          <mxGeometry x="90" y="130" width="870" height="380" as="geometry" />
        </mxCell>
        <mxCell id="VCK1Q4srkvo5amAOdL8o-4" value="&lt;h2&gt;Uncovering Financial Insights: Leveraging Machine Learning&amp;nbsp;&lt;br&gt;and&amp;nbsp;&lt;span style=&quot;background-color: initial;&quot;&gt;Natural&amp;nbsp;&lt;/span&gt;&lt;span style=&quot;background-color: initial;&quot;&gt;Language Processing for Cryptocurrency Price Forecasting&lt;/span&gt;&lt;/h2&gt;" style="rounded=0;whiteSpace=wrap;html=1;fontFamily=Times New Roman;fillColor=#dae8fc;strokeColor=#6c8ebf;" vertex="1" parent="1">
          <mxGeometry x="90" y="-120" width="870" height="60" as="geometry" />
        </mxCell>
        <mxCell id="VCK1Q4srkvo5amAOdL8o-5" value="Rapid Growth of AI prediction of Cryptocurrency" style="rounded=0;whiteSpace=wrap;html=1;imageWidth=24;imageHeight=30;fillColor=#b0e3e6;strokeColor=#0e8088;" vertex="1" parent="1">
          <mxGeometry x="130" y="160" width="200" height="50" as="geometry" />
        </mxCell>
        <mxCell id="VCK1Q4srkvo5amAOdL8o-6" value="Techniques Nowadays Lack of Accuracy and Transparency&amp;nbsp;" style="rounded=0;whiteSpace=wrap;html=1;fillColor=#dae8fc;strokeColor=#6c8ebf;gradientColor=#7ea6e0;" vertex="1" parent="1">
          <mxGeometry x="130" y="220" width="200" height="50" as="geometry" />
        </mxCell>
        <mxCell id="VCK1Q4srkvo5amAOdL8o-7" value="Creating a Large Language Model Based on the Fin-tuned Models&amp;nbsp;" style="rounded=0;whiteSpace=wrap;html=1;fillColor=#b1ddf0;strokeColor=#10739e;" vertex="1" parent="1">
          <mxGeometry x="435" y="180" width="180" height="60" as="geometry" />
        </mxCell>
        <mxCell id="VCK1Q4srkvo5amAOdL8o-8" value="Giving Accurate Pridiction" style="rounded=0;whiteSpace=wrap;html=1;fillColor=#d0cee2;strokeColor=#56517e;" vertex="1" parent="1">
          <mxGeometry x="720" y="160" width="200" height="50" as="geometry" />
        </mxCell>
        <mxCell id="VCK1Q4srkvo5amAOdL8o-9" value="Providing Expert Analysis behind Prediction" style="rounded=0;whiteSpace=wrap;html=1;fillColor=#B9BCE2;strokeColor=#56517e;gradientColor=none;" vertex="1" parent="1">
          <mxGeometry x="720" y="220" width="200" height="50" as="geometry" />
        </mxCell>
        <mxCell id="VCK1Q4srkvo5amAOdL8o-10" value="" style="endArrow=classic;html=1;rounded=0;exitX=1;exitY=0.5;exitDx=0;exitDy=0;entryX=0;entryY=0.5;entryDx=0;entryDy=0;" edge="1" parent="1" source="VCK1Q4srkvo5amAOdL8o-7" target="VCK1Q4srkvo5amAOdL8o-8">
          <mxGeometry width="50" height="50" relative="1" as="geometry">
            <mxPoint x="480" y="210" as="sourcePoint" />
            <mxPoint x="530" y="160" as="targetPoint" />
          </mxGeometry>
        </mxCell>
        <mxCell id="VCK1Q4srkvo5amAOdL8o-11" value="" style="endArrow=classic;html=1;rounded=0;entryX=0;entryY=0.5;entryDx=0;entryDy=0;exitX=1;exitY=0.5;exitDx=0;exitDy=0;" edge="1" parent="1" source="VCK1Q4srkvo5amAOdL8o-7" target="VCK1Q4srkvo5amAOdL8o-9">
          <mxGeometry width="50" height="50" relative="1" as="geometry">
            <mxPoint x="400" y="270" as="sourcePoint" />
            <mxPoint x="450" y="220" as="targetPoint" />
          </mxGeometry>
        </mxCell>
        <mxCell id="VCK1Q4srkvo5amAOdL8o-12" value="" style="endArrow=classic;html=1;rounded=0;exitX=1;exitY=0.5;exitDx=0;exitDy=0;entryX=0;entryY=0.5;entryDx=0;entryDy=0;" edge="1" parent="1" source="VCK1Q4srkvo5amAOdL8o-6" target="VCK1Q4srkvo5amAOdL8o-7">
          <mxGeometry width="50" height="50" relative="1" as="geometry">
            <mxPoint x="400" y="270" as="sourcePoint" />
            <mxPoint x="450" y="220" as="targetPoint" />
          </mxGeometry>
        </mxCell>
        <mxCell id="VCK1Q4srkvo5amAOdL8o-13" value="" style="endArrow=classic;html=1;rounded=0;exitX=1;exitY=0.5;exitDx=0;exitDy=0;entryX=0;entryY=0.5;entryDx=0;entryDy=0;" edge="1" parent="1" source="VCK1Q4srkvo5amAOdL8o-5" target="VCK1Q4srkvo5amAOdL8o-7">
          <mxGeometry width="50" height="50" relative="1" as="geometry">
            <mxPoint x="400" y="270" as="sourcePoint" />
            <mxPoint x="450" y="220" as="targetPoint" />
          </mxGeometry>
        </mxCell>
        <mxCell id="VCK1Q4srkvo5amAOdL8o-14" value="&lt;font style=&quot;font-size: 15px;&quot;&gt;&lt;b&gt;Brief Introduction&lt;/b&gt;&lt;/font&gt;" style="rounded=0;whiteSpace=wrap;html=1;opacity=0;" vertex="1" parent="1">
          <mxGeometry x="170" y="130" width="710" height="30" as="geometry" />
        </mxCell>
        <mxCell id="VCK1Q4srkvo5amAOdL8o-15" value="&lt;p style=&quot;&quot;&gt;&lt;br&gt;&lt;/p&gt;" style="rounded=0;whiteSpace=wrap;html=1;align=left;shadow=0;fillColor=#cce5ff;strokeColor=#36393d;" vertex="1" parent="1">
          <mxGeometry x="90" y="280" width="240" height="230" as="geometry" />
        </mxCell>
        <mxCell id="VCK1Q4srkvo5amAOdL8o-16" value="&lt;h4&gt;&lt;font style=&quot;font-size: 14px;&quot;&gt;Data&lt;/font&gt;&lt;/h4&gt;" style="text;strokeColor=none;align=center;fillColor=none;html=1;verticalAlign=middle;whiteSpace=wrap;rounded=0;" vertex="1" parent="1">
          <mxGeometry x="180" y="290" width="60" height="30" as="geometry" />
        </mxCell>
        <mxCell id="VCK1Q4srkvo5amAOdL8o-17" value="&lt;b&gt;Origin&lt;/b&gt;: BitstampUSD" style="text;strokeColor=none;align=center;fillColor=none;html=1;verticalAlign=middle;whiteSpace=wrap;rounded=0;" vertex="1" parent="1">
          <mxGeometry x="120" y="320" width="180" height="30" as="geometry" />
        </mxCell>
        <mxCell id="VCK1Q4srkvo5amAOdL8o-18" value="&lt;b&gt;Processing Models:&lt;/b&gt;" style="text;strokeColor=none;align=center;fillColor=none;html=1;verticalAlign=middle;whiteSpace=wrap;rounded=0;" vertex="1" parent="1">
          <mxGeometry x="145" y="360" width="130" height="30" as="geometry" />
        </mxCell>
        <mxCell id="VCK1Q4srkvo5amAOdL8o-19" value="Chatglm3" style="rounded=0;whiteSpace=wrap;html=1;fillColor=#d5e8d4;strokeColor=#82b366;" vertex="1" parent="1">
          <mxGeometry x="220" y="400" width="80" height="30" as="geometry" />
        </mxCell>
        <mxCell id="VCK1Q4srkvo5amAOdL8o-20" value="Gpt4" style="rounded=0;whiteSpace=wrap;html=1;fillColor=#cdeb8b;strokeColor=#36393d;" vertex="1" parent="1">
          <mxGeometry x="120" y="400" width="80" height="30" as="geometry" />
        </mxCell>
        <mxCell id="VCK1Q4srkvo5amAOdL8o-21" value="WenXinYiYan" style="rounded=0;whiteSpace=wrap;html=1;fillColor=#b0e3e6;strokeColor=#0e8088;" vertex="1" parent="1">
          <mxGeometry x="120" y="450" width="80" height="30" as="geometry" />
        </mxCell>
        <mxCell id="VCK1Q4srkvo5amAOdL8o-22" value="XunFeiStarFire" style="rounded=0;whiteSpace=wrap;html=1;fillColor=#d5e8d4;gradientColor=#97d077;strokeColor=#82b366;" vertex="1" parent="1">
          <mxGeometry x="220" y="450" width="80" height="30" as="geometry" />
        </mxCell>
        <mxCell id="VCK1Q4srkvo5amAOdL8o-23" value="" style="rounded=0;whiteSpace=wrap;html=1;fillColor=#f5f5f5;fontColor=#333333;strokeColor=#666666;" vertex="1" parent="1">
          <mxGeometry x="330" y="280" width="430" height="230" as="geometry" />
        </mxCell>
        <mxCell id="VCK1Q4srkvo5amAOdL8o-24" value="&lt;font style=&quot;font-size: 14px;&quot;&gt;&lt;b&gt;LoRA and DoRA Fine-tune the selected LLMs&lt;/b&gt;&lt;/font&gt;" style="text;strokeColor=none;align=center;fillColor=none;html=1;verticalAlign=middle;whiteSpace=wrap;rounded=0;" vertex="1" parent="1">
          <mxGeometry x="437" y="290" width="176" height="30" as="geometry" />
        </mxCell>
        <mxCell id="VCK1Q4srkvo5amAOdL8o-25" value="&lt;b&gt;Objective: &lt;/b&gt;Improve the Model&#39;s Zero-shot Learning ability" style="text;strokeColor=none;align=center;fillColor=none;html=1;verticalAlign=middle;whiteSpace=wrap;rounded=0;" vertex="1" parent="1">
          <mxGeometry x="370" y="330" width="310" height="30" as="geometry" />
        </mxCell>
        <mxCell id="VCK1Q4srkvo5amAOdL8o-26" value="&lt;b&gt;Principle of LoRA: &lt;/b&gt;&lt;i style=&quot;font-size: 10px;&quot;&gt;&lt;font style=&quot;font-size: 10px;&quot;&gt;&amp;nbsp;&lt;/font&gt;&lt;/i&gt;&lt;b&gt;&amp;nbsp;&lt;/b&gt;" style="text;strokeColor=none;align=center;fillColor=none;html=1;verticalAlign=middle;whiteSpace=wrap;rounded=0;" vertex="1" parent="1">
          <mxGeometry x="400" y="361.41" width="120" height="30" as="geometry" />
        </mxCell>
        <mxCell id="VCK1Q4srkvo5amAOdL8o-27" value="" style="shape=image;verticalLabelPosition=bottom;labelBackgroundColor=default;verticalAlign=top;aspect=fixed;imageAspect=0;image=data:image/png,iVBORw0KGgoAAAANSUhEUgAAAPkAAAAYCAYAAAA4V1u3AAAAAXNSR0IArs4c6QAAAARnQU1BAACxjwv8YQUAAAAJcEhZcwAAFiUAABYlAUlSJPAAABYpSURBVHhe7ZxpbFzXeYaf2VeSw31fRYqkKFGiFluuFMdOvMZJC7dJgxZo/xbIz6Loj/wq0qRNgbRJi7RJkSZFmiZ2E8eyY1u2LNtarJ2iRFISSXEnh8PhzHBWzr72uyQlc5WsWMpi8wUOSJ6595xzv/Mt73vmSqqcgC1sYQsfW6iXf25hC1v4mGIryLewhY85toJ8C1v4mGNLk3+CsLjVmTRZleR2tQaNavmDLdw7shmyyg+W7Kj6HbblViX/JEEcM+mZwBsMEUwu923h10MsSDQUwBNXAv13G5q/Eyz/voh0eJ6Z629y7Mi3+OY7EWIJsBglU8UczJz+BX//LyfodfjIWM0YdSZMkUl6j/03b5+9QrfLQF5RERa9Cq36k1MmMrLhvsmLvP/S3/Kd93yMz+fIM2owaELMXTjCd79/nGPd06QLTBhMhRgjdsbOvsQ7x49xfEqPMb8Ai0GLQfsAc24mRMLXyxvf/CfedpqJFlTTXqqVD2J4bpzi+I9f4dUjlxjXm9DqrWgiU0xcfInXf/5D/m9ATyqnw2xSoYk7cF56kx/87DyjrhQqk4WCQrlHRvroO66ES4rwbA8Xf/pjXv2f1zgdt6HWGjFmgngGj/Lmke/wzXejpFMqLOKYWhYIDp/gpX9/g6v2EGGjlcICKzox5YOprsoafQwd+yHnu/sYMh+gvVh9//09kyQbcTPde4yXfvgub58aZaFARdTrZqb3XU5dGOLCtIra7aXo5XLN0l0bYp1XqdSyXXE/oanL/OqyndlwGpVWiyabRBMe5/Lb/QyNBVhQ6dBqhP5p4rgdYuhQBn2eURxbJZv9yQlwBSqhvqTjZBwXee/qBDc9MdCLzcihi9sZPHuDvj4nfpV+yfk0SXzzEebdSXT5JrlUjfoOHplJJfHe6MHh9uBLLXfeE+IseJ0Mne1lZPoCJ24M0DPpJSn7lBMX0OiieAcvMXTqDGMLxqU+rUrcYIKpa8c4Ni7BI/NqNWpUiQjZ+VEcKT1pnQSfXnMfd1sZSSVBnSU8d53x/tN0z+XIyHq0Gi2ZiAv32FmO9M3hjkuvrEediaGKTjMRypEQdzeL3ZV423xNCRZcc0z1DDOfFmaz3PthkRM2FJs4z9n33+LVMz30zYRJZx6E4lUeQoM6OErP8DjnphbAZERvMGKyZogMX+bGL4/w1s0IQbHFnbAuyDVmG0VlDbTUtKDVFVNaVUJJWSEmvQGLOUehWkdRYQUl5RUUm3LiEOIqlZ9i50PP8NzhVuptOqlI92/bfx+gNljJK66no6ENs7mMwtISyquKMAnTsZjAptFQnCd2rKqlzCLVUCURU9xJ/Z4/5ItPdtJaYcGq37yKZ5NxZi++wc3JKZzCrO4V6bAbz/Q014aylHZVEYmFsE+58GdlzpyJosZ6qqWqV+rjWMpaqJTKbMuzYjCYxM+kVhZUUFVloyxfakZOQ0ZTwkNfeJZHH91Fa3U+QvTuU6ArowhjKGukormMim0mNEW11JVKdbaZMehlLlUxKkMR5bVllBab0WezEnhG6p59jkOPP8S+xhKsUqc2z5lx/JMTDBzvxp5IE7+X+MymyCZ8TPVJobN7GF1IMBcIkt3kWCsbDxD0e5j2RElllVhZQi6dIBVyMuuLsrBZgGp0wpIKydNGoaEcS1cnXW0tbG9poePAHloMcbRXz3B2JEo4fmfBsKFnaWQCvd4MkSSpTJa0BHLIO82Foy/jDo6wkIgSV7RIPEbk4kniVeWYmpooWb7/kwiVWi1UPA91IkM6mRHSKVZLeOl59w3ss9dYSAaJyH4piF67RMygQbuzgwr5W6G6d0IuJ+NFhvGKBgwKSbhXhIaGmJ+Zhc9/maf3P0HdRIpAr4MpyTWL7qGTxCzBrJOKFI4JTVScVqmkfYMcvZxlwrPAQiotFXUed8jPicE6DteZqS+8E0n8KNChEYag1mclISWW1hMdY3pwiFNvLpAS5hiTAE2IXwZ8EXrOpNjZWkqlJMsPg1QkTMjpwCvBkboXQZ0Okgn0cNy1h4aaGj7VnMYvsSBpZvmC1cjMdtN79m2+99YkIfGLW1Olwy6CfS/y01OTXJvZPGvnclmmxy5gMEZlvlIKpW8xYH0+vOlighUHOdiWh1Wk4Z2wYZCrNUIrdQWo5mOLxox6xgm5pxht+zJNonmKsmnS6QCx2CQnZjtks0toL7mbq94dC5PdXH3vGG8dv8qkPHviXjZgUygbkMI3eoXLooGPvD2EJ5aSntVIRaNEF8SZ79KiSUl8y/eshFpkjt4kVSaYIhFNEg26xC8vMl7/FKX5VVTl0qTSEuXJ61xy1WI2VrO/8qPb7G5ITbxFnz/FeP5BnmkwUdrSxq58D6ULQsWdiiMpV4m0KBbaXbEcVFk/g6NCS7MWHjmcL5RYSK1UoujYNNE5N3lPH8JqMW+anLJpCUCxVXiN7Va3COFwkowUkfUQW4rjaoxpCcQwmWyCmYFZorEMLU+1i3SUpCcVPOkWneqbZqbrWapsVgoeVM5ZRJrwfJDB42PU7m2jsaNcmG6KGX+EuNhmo6fQVO2lpbaUR+Kv8e0jAww4wkRdwgIun+JbpxrY2V5KU41h+eq1SMjeOHEMezClNcKiNETmxxk9+yovvj6Gu3o3n//qn/FcjZ4C/Z151IZBrtUL7zfmo3IGiYWEnsjiHB4TXZ/aR5vVjzYawDXpwnl9iPi27dhKbOTfZaIPAx1BHHYnl3rdpGTDcpsNGZzCfuM03zgyyLgvJua/G9Tokm687nHeGQ6Ivlyfe7OZjDjc3VtWnFIS7Dqohf2YC4rReGMk/D5m50MMDEPz3k52lGXIS3jwiD0d5y4RKRb6VVlGkXEj8y8lpUQiLklUkqzShDHFJLnEJABjkeW+xX5x9s0eXgKDxBT9w5LQtOVs315DqVkqdkU9TVVhjLkpBqaCS1+rYcVYaEBbmMYTDJIYu4ZblY++sZO9jdWo3QtEQmMMuxM4IuV0NhdiUSrt0kzroIx5d3tKoZDkkZbnXW9Oo7Aiha5mcPiDxL39TEbMpIp2sr+1Bs2Un0jQyei0X1iShp0dlRTKsynnHesgCUE507htM2mJpNDlTIpYdKUtxbYKs1nrGLcQchCct3OV3WyrKaOpUhK1xkZMAj8qz7vRNqiNNorr2tjd2cr28BkunniZ/z3az3l7Hh2Hu9ghUqdwsyosBSHnH2HoWiV6dR2NNcUYpcDayqWeewYJLrgJF5RRJj6ku8uh34b7pBHqZhSBbwyGCU8LTfIm8Jsb2C+Zp9IYkJI7zey0m7FpDbVt5eQXGCXbxyV7u5kZHRatEScSjxIJB5l1RRc3NOyZYdY+yYTQRqd9msnpeQKiabLKRke9OB125mZnmJbM6EgZJCvnUMV9+F0O7NMOZpx+kQlZ4iEvnrFuLp95gx9JxR+YlYoh/ZlkjKjXiUtomGM+QiAmwSgbmYl4cDtkzpkpXEEfPo1VHlq17sHVWq1kZnGUuzStemPnVg6BjGYLhkicuMzlcHqZ0jaxo7mCuvwY2ogd94yD/oEctupiisqsG5+ICjUXPkfA68E1N8ecNJfLzXw4TTAQwD+/1LfYRNNFhAauR4pkzMd0X5/ozgqKJLB31AiVVQ4ILbXUNOvRWr1cG3eSUAISk6xd+kwxvH5hbNedZPOKqWxppjqvCLXozrnxIewxNcmiJprzQWJ8U6hEEGsUW62x3eom8kA5u5Fr18eVMEkpNBpdDm/AzfjQCCGdDVtDG00FwizmFghMDjPpFdmhr6azQotJt4mjZxIkIv4PbDbnwuNXZE+MoMeF27XU7/L4mI+I1NowykXHix/OTM+xUFKLPhFGlTaJLMsjG4gQlXs2VtYaDIXVVLYf4NMldiZ7TnDs4izj6TqefKyBqjwDm9XxnMiAlPMmV6PCXIqbJDEXYLYUUdrYTq3FTtDZz8VBNxG59s7HbpsEuXI8KXEuGjuI7/ogISkX5l2tKARNZ1SRDI3gCgWxFxxmR77QBZ1MFBWdMN7D+Td/ydlBrwT3LI7pEU5emRP9HmTm+jnOnXyXY+9309/bzfsnrzAyMUsgMI9nfICrfVc4c1LobTCEfnsVpSnZSPtNbl7roft8N+fO9DMRSBJ0TTDc38Olnj4sWi9ub1x0WUj67UwM9XKj9wIXbzgYd4ZJhD3MjvZxTeY7eeYaY/YF2trqZb0S0MuPulQ5cxLkQg+VprlzU2+WNZWTHhm3UBUmNj6Kx+XF/HAnFoMZvbCcTMKBT+jWYMET1OYXUr7Z7krlkYUTEAecc84yK80pjukLq0VOBCX4l/oWm08SXHx9DcmmFHtMcvboFMUtlVRvK108HFOcDiTIpaobbDlujkziFx2eFsqklSDRIElkro+zzjLyLTa2l+jleeWWhIuRfrdQPIPQ1IrFr2w2rx1iTyV2xVbaNbZb3WQPtKK95WLVBnGl1VjQ5QykvRNc6FfLeixsrzcqB86SkiLMX58gLmPk72lGUeIbO7IgLZV7Yf4DmzlduMRf/PE4C/453HNL/U73/GIi3eikPJOYY3wmzKhdRYdtFvfsGHZ3hGBIElRAWIBC1zfKDYKcsBblRD5XWIFFYyLfrMUs1DsrUiWnsMLl69YiExc5MznIQMs2NE3lkhCkU3l4YQ8FNklQkoz7rk3ile67MdmNbWMwobdZaFcfZTadj8bcxIFSi/hxBaUHdAwIbRwNqtl3qAyLcCRlEM+km5HuXkKZ85yYcgjN6Gao/wKvjkn2mz3DgNPOxSsBJm5kqXxsD5aRIwxeepmfvnaeH313AEPrfkpsBuoLVDQVZ8kOv8i/vjjOUDaPksIYvldeonc2SqxMgtRWQ5O5mj/50l/y2K4SNMMvc/roi/zEXkq5cu3kOFNXTjBw+U3+5r+85JqqqCiqpFQyb5NUNO2q03/FzAlCUwPiyD30XLlzG5ySSrB8gLYK4rAUV7JNe46IsJOArp3HKoUNCVUu7DDiNKc4O5ri4BOVFNn0G1dxBWoJIVMlTe272LN3H/uk7d2zm/YqA3WNjbR0LPUttu1lVMhYaxGxC2sYukn8uS9RX11GqSxtJUoq2imOFJM4McpwPCt0M1+khknMEGX4DScFj7RSVFdMgQR6gbkAen7BjG47xpI2mu96tiW0NyhBIba6usZ2q1svV3rHmAtJpd1A/pjzhCGmbPD6FVLNe8mrrsaWZ8ZSZOCw+pfMJArFLxvYt/bh1sIgUrKy5QOb7d3DruYGGouKadjRRWfXUn/XzlZ2VOgxbsAIfFcuEkhnMR9+ikfk2gPSDj0s0rWghHS/g7moMMyNRLkg5ZeEcOUNvv1eLW1f/Apfeb6OnYG3+PrPR4S1JjatwrGIj9HBdyivyaOmOF8ElQLlNGiMyZsqTOom/mB/K8XSc7eTnY2DXCWE1mDFUHuIrv176GiSYFZe1FBJ5jVW07pjHw/v2cE2m2RjqWyKWQpqCiitqyTyvoZGSRDquJ2of5KysnJUNhmjzEBJlY5AWYFQ/hDhKRXh4WFhBBPcKK+lunCBlLcIQ6KcalOIye4XCNnysOYLlUyCK1yJzZjDqBFNHbZIa2dvk4k8k7CGGz5cgzmqGqvIqzvEo4c6aSmUzDz+PjGhNyWGNNl0EUlVLbW2jKx56TGXoKxe+dqmjurGZpqb79xqywop2LAKyzjKCXXlXtp2i+N01JAvyUStfNdpKKeuqZNDB/fTXqQTW97hTQKFEahlHL1BNJgkCWkGgwG93LNIfxUZtdxv1Iv917ybmp7r5sqJ1/jPH7zG6Z//B9//9j/yD9/4Gl/7+gftn39yjBNX+0X69DPiyBFNLDEUW2UZe578DPsbCikxSbWVMq4R2s7uZziwr5ntVRbRh8sTbQodekshFWKrbWtst7o1sa1pWUtvYAzl3QNrSQVNjz3O4V0VVCuJUfE1Yz6musPs27+bHQ2lUh03teQSlNd3tRK8t2xmFFuKHRXZpdjYcMueBv3iV7+331dQGIB/nIH3X+CFn/TTfT2OvtCCSa5bfDFn3oXTM008OMr13hk8wdj679x9Q0wMjnNipIJPf2E/Xe1NtO18iK59u3ksc5JTIotuutacritSbU60eG8P587Nok9JRXfbhb1epufcO7zw3dcZzfsMO5/5Y754sGyRod1tS9a98bYEqaRCypI6qeCPddFSV4hVu0QskgtQ1vEwHZL5mgqEbC3bRGdKkRDNe+MX1yk81EZk4ir2kTlieS00tLZhcrzNgD/KuLaKz5rH6Z0oEq0oGyARczNTyROlo1w+aWc6bMIkVNIWv8B102epVrlF4w7yzkSG4mqhmvlCvcYDDI1CY2sGtWxaUP6IxDNodj5MgyFEMq4m7R+VRDDDNetn2Z+9yPUhOzdl7NKKSuorrEsvoCyuXHkAtTBRRZdasVru3EwGccoNy7BiHxWRXB3tB3axs71Sgnxp9GQ4R2F9B+17u2gr0i46670gk4zj7n2XUPkeqUqN1JiXP9gAOdHigYUk4VwBtdVF5FstmM3mVc1qK6WitpFOSdRd+/ZQl6fGkA0LexP7dj3NIw1W8iWaVdk0KaGYibK9/NEj29hWYtr4cGsVlBdpJBDEVpY1tlvdLItvrOmVF1o2Mkc6Qc5SQl7LQZ7sLKXEokOdU77G0xE3NHPwM10019okyJev/9BI4LfP4ZyYJ+/wfiqMOqmKyx+tRC4jsidBJBRgIVFMqSSm7dvLKTXIYtNJSYxJ0nobFfUN7OkUHy+XZzIoL0CtgARLRBJo3FjHQw8p70gYMJvELtZ8SrWi5S11wjwtFJlX3KXYPJkQiZsipymmbvdhtteUyDWyH7kcsbCGMvHzjs42WitF0sgtd/OmTf+BSk5ERiqaQmvUSmFZsoJyqfJVU04yoVqvX5zgAwTwjAxw6t9eR/e5vTj7b+Ka8KFq3cvDzz+N+uhXOe0xM1X1LF+tHOGC4XF2FQdIRgK8PmLiz2uu8eZpH45ECU1tZTzePsO7/sPURgdIzN/gVzP57Kp4nOceBa8jyJXLAXbtTGPe+RT5zvOEA0HsVV/gIfMVxmYKMGY9WM1uXpExHk+8Qrd9nuFoPXsbH+X559sotq5d//2BYjPFXsr3vLeQisXISjZUScX4MJuyFqnYAuOvfw9X85PibF20K/rsfkOCKpvNkpagvv1KqHIyLZoympJAEOfW3nNAfQQoX9OKPo5nZW4xmuQCwdKpvJhTqq9U49WU7EMijOOaVMqLk5T86edoshqQHPexxuZBvqJbOS1VsOpSxWmXf11CTj5f/nUVFDoywqt//TPmitrZ9ld/IVV76ZPfKtat//7glo1u2UzBbbst993rvKu3SNb9YBa+fAi0vEblx+0+BQ9o3s2w0XrW+NhKG394rPXT3/Bz/RawaQ5TDHir3cLKvvV2WfHZipZLpYncHCPdVI4IWgjFNrzuN96WV32/cWv8lVg5568z7+37F9ty5/3GivFvz3G77wHOuxlWzPvB3CvX8+suaPUYv/Ywv0d44P+ePCv6JeUdY8qdJKYrxFZWQX3R+hPhLWxhCw8GW/9pxBa28DHHx/zIYQtb2MJWkG9hCx9rwP8DwldF+QjdQXkAAAAASUVORK5CYII=;" vertex="1" parent="1">
          <mxGeometry x="511.92" y="368" width="145.26" height="14" as="geometry" />
        </mxCell>
        <mxCell id="VCK1Q4srkvo5amAOdL8o-28" value="&lt;b&gt;Principle of DoRA:&lt;/b&gt;" style="text;strokeColor=none;align=center;fillColor=none;html=1;verticalAlign=middle;whiteSpace=wrap;rounded=0;" vertex="1" parent="1">
          <mxGeometry x="370" y="391.41" width="110" height="30" as="geometry" />
        </mxCell>
        <mxCell id="VCK1Q4srkvo5amAOdL8o-29" value="" style="shape=image;verticalLabelPosition=bottom;labelBackgroundColor=default;verticalAlign=top;aspect=fixed;imageAspect=0;image=data:image/png,iVBORw0KGgoAAAANSUhEUgAAARcAAAA6CAYAAACalh2IAAAAAXNSR0IArs4c6QAAAARnQU1BAACxjwv8YQUAAAAJcEhZcwAADsMAAA7DAcdvqGQAACloSURBVHhe7Z0HnFxXefb/0/vMzs5s39X2opW2SLKaLblh44YN2ECAQAI/PggklECS7wMSSIBUSjAk9BCMaTaG2OCG3C0XWbLqStpdaXtvs7M7vc98751dNVuSJXmX2GgefNHOmZkz5573Pc/7vOeee64qIyCHHHLIYYmhXvw3hxxyyGFJkSOXHHLIYVmQI5cccshhWZAjlxxyyGFZkCOXHHLIYVmQI5cccshhWZAjlxxyyGFZkCOXHHLIYVmQI5cccshhWZAjlxxyyGFZkCOXHHLIYVmQI5eLAhnS6TTJZJrcrWQ5nIJMOusbqbT8ucSukSOXiwIR/L4gE2Phxdc55LCIuI9IcI5pP6SXmFw0/yBY/DuHV4lMKknSN8bRHfdwzwNPcddzHqwOKyaLEb1OQyY0gefo4/z83+/nwGSIkN6CzWLFqAWVarGSZYD/8IM8dM+T/OR3PiqvrMeqUaEXp/KNdrDniXv4t9tfYDCYQCtttZrN6CXkJAPd7H/4XrY98CQvBEyYzU7Mei3y30WBVHiemd5nePq+L/GNp/wy+DJYjSp0aS+TO+7l9u88yXPdU6RsJgwGO8bQMEe2/5LHtz/Ls2N6zI486S8NeunrZUMySnxuhMF9D/Pz72xnV9cEAVOKyMwUI3t/x2MvjnJkTktxpROjfPzUlihMkmRizz08u3snjwZqWFMm56JdOr2RUy5LCcV6ag34hug6cJCHnhvBr9WQWrRqJu4nNtvLkVkVkbROBqr6FUglhn9igpGDA3hFsyYWS88VmVSc1EwHR3u62btjD51PPcuhmTShbEXy26kIac8Rnr1vN519c/jSJ9qjik4zOT3HsCctg0eHVq1aVgJ8zUFONh31Eep/hgd29nJ0Jkxao0GVTqAJ9rL70X3sPTDBbFqDRi0DVR1lZtzL9GSQjFEnZefZX2KLVHCIjl4PU3OxxcJzgLRHJTZ+Yl8ve0b9pLRatDotOmOYmV1PsueBR3lmIEI8eaosUdLjlKeL/c89yn2PPMPvjk4TlrRZsqMlQ45clhAqtRjVUUpVVS2leSVoMxZctcVYjHp0xEnEEkRiedS/6z1ce/0WNtQVkich5cxOGMHT00vn47sZEc0aPx/ZmkmQis0x2bmL/qgZjUVPg6qTroEY4ai4kMGGvaCc5oY6anV6Cpwu7E4nVm1G2pMkOh9DV7mB1Te8mz++cjX1xQakiosGGpODvIIqmquaMJgKcZUUUlSSL2rEhN2mwaXV43YUUlBaTqFFiSlJKNxI/bqbufWaFuoLjJh15zG8kkGScwd5ZOcgfeNCUIvFZ4XWKO2049SFSDZV4WxvYU1zI40NDbReup662ATxvS+woy9MPHVyjSkhpRCe7r10HR2jYzTCyKyPaDp9br97jsiRyzLAaLFhSGRIjnnwRMRvsuFghompWZ7d6eKydhslBeeWX8QDfvxTEiElmEmV547UPFF/J7/dU03lyvXc9EaX/OYQL3SP4w/HFz4jpKJx2ClST0gaECQUVQrF8QhyePsYWpWe5kvKUDjlYhItx6AWpWIwWlBFJN1NpEQ5SnAITrLzd79hfKaTQDxIROkzSYfDe58n6rCgb2qkUIrOu78yKTLJAONjXuYCUUlYzg3xWIi+7idw5KtZUeTEvliOZ4ZpVSXJ0jWsrbWgOyU9E8Wa6WH7izbcRdVceolbUvaQBK9MTrm81qGyOymTaLYqKaQwK+QinuLv6mN+ahrDtRspMRswn49mFlI5v4jiZ3pwiB339VF1RQOlVasor1hBSbOefUd6mA5LJFM+ppfI53JRrekj5Z/FF0hKQJsntuc39JY0oalooNIo8l4+ejGSi0otitOQj0rSlGgkQXhunODIYXqrbxIbuihMJ0kkRHFEj/L8hCgHSxGtRbpX11/ndckmLGp4kqFDHvL1BpymtKTR3XRv/w0/uX+czPqt3PSRm7i6RI9esvVjiHl9TDz+IrHWRkpbVlJhsJKeCREUdXyupHYuyJHLcsDhxGWNU57oY3JGoov3KENTcTzJMlqaCrGJpU+y9QmkU6QScSKRyPEjFo9JvhwnGo7KsVgeldfiBWea3Q+PDzEzMYWnWNKZGjcum0hnVzmlRVX4nupibDaMXwlRGlEu5nxKG8NEVT7m5qcJ+ifZ0ZGhoKyUitI8zKdt6MUBjVaH2epELQMv6ptjbMpH37CKxk3raMqPYo7OMiNKY2LvPoLFK7AXuck3qkknE0S9E0yMDTM2M898VhG+BJKCEI8Six6zqdg3Eicdi5I4VrZ4xFPiF4tfOwXKHJ5H0pp9VeTbyikX5WIymrG5LESH9jKfFAWUX0CBtElzLJjFZ/HPT/LiSAFVlcXUrSjBkbCQPuLDl5TUe+FTS4IcuSwHTFYs9hQ2wyijM17Gu7uYjplQFzbQlKdFpz5DXBNniAbnmJqaWjymmfWJ0cXBfDNTzEwvlE/PzuENp4RcXs4uaf8wo0MTTEaMlG1YS5lNcn+xsiWvmGJ3LSUd+5maDOLNOrwetdZBfqMaj9rP0OgAnuEhjuhWU1vipNxxkVwaOgM0khYZzWYM/jCR0UFGpiVt0VSzZmUxK6wB1KERJkcm6OxOUVBTQJ5bUqjoPP7JIzx+YERsP8VEfx+9Hb1MSH8nTso5MhJIEr5p5uQzC7aWNGbWLwTjk8HvYea4D3jE/nHip8lXMuF5QpNj7Aytx1lcQUVRHta8IorrVlJpOMToYCcH+uckCTqmfNOEZ8eZGhlkWF+OUxVFL/XGAvLOqJ+ANPAl876vCq8RcsmIGpQTE9aOxyW/PU1Hvr6gQ+/UoikM0Tuyh127AmhNDhpXu88+f5EQJ/ZNMTI6snhI9Jv1CZGI0pgZYXx8oXxMHHFGUhhl4dNxSP8pVw6C/dvpms8wbW/l8lI9Ju3Cr+nyXBSsKGKr7kV8U/NCWsqXtSL9hQiF8EZDU+w/0M1o1yTl17WTl2/LtvWihnLFR6smXxUk0N2Nd96P8ZJVWETx6XQqUqFBZufG6LZdQ63NSoF0WGr2CMMv/pLPP+nHZzKSGtjL/l/dw7OeNKGTRm46lSAi352cWLT12DijU7MywP14vdOMZ+0/Kscks/4YsdPkK8mgj3nPKHvXtGNbkUeBpOKodMKKopzdAVFOvXR0jeCVYsXamWRIyG6KIbFxRU2M6YkB+sY8zIYi6DJCbLEMIpKWDK8RcknJ2PDT+8wj7O/oY2B+sfh1C5tEEIvkuVM8/c3vc8Rdj76yBkl9zw6TE2dZI+vWrVs82lhVU0m1WyTs6nW0rVkoX9NcT2PRqXk0aYlPkUM81VWEw17D1W3OxTcWYbJhKnGxun6YgekxSY2CUqhFrbbhdOej79hG39Eedrm3ssWhRvgmB50BTb6bBs2TzKU0RA0NXFZkRqsuxtVuYFAdZ+9Ymo1XFeOw6rKDyeftYWLgARrrSnBaqyh0z2BzPsvOziDh2IlooNYbsVS109SyaOs1raxZVY0rv5LKulW0HfeBFmoKbdiEM14K/7zYcXgn1Q0llNjMmLOlYQnUvaKWjBTmNbBudTWKJyghJjm8nTHJp2fq3sK1UvdGpX5J8TY2uFiXGsDrSQnBZCtZErw2yEVyx/TECzzyo2fZtXuc2fNd0PGagwxkMXZBlZ2SVVvY0FJOVaFR0qHFt88EtagdcWizSRwle5gw6hUSUdYtyN+L5SajAaMoEtXxSeEwAU8nz9/xZe5/7H/4xa9+zPe+8WX++V//+cTx5e/wrTsfY0coxov9owxLahUVl1MmLZ0FtTjL11G3sp0NreXiyCrJ0RervpihEoOJPQyla1nZ1k5LQykOMaJK1IHGWCwk0MqGta00uXQL9pCvpFNxkokABr3YUvpWq0uKmAjiC8dEaZ5QLiqpW6M/YVPF1iajfF5UkV6Ix7RYZhb1o9dqTthDSYWl/tmxLjr3dbB/7yR5uhhz40P0HHyRnU8/wd3ffZTRqndw6XXXcn2bA03Uw9T+R/n1nU/zzO4pUnYHNvEnszpKcG6WGc8g/tgBjh4aYMor6nmJ1MurXqGrLMZJR+YZP/o0uw7s4em+FEZlMOhSxOeG6d2/j18/2EVYHBatQRIGUSm+EY7u2kbHaAhvXCRmykeq536+/1gGe/Mq2tsrKDAs/sDrEiIpkmF0NlEiq2/l+jXFlNj1p5/EPSuieAbGRb76sW25hBJxYONpB32SRDTA3PAoUUcZdocoJ4PipCcf4sgWSY2qG6ho2cyGpgpqC6yiXTLSrgwx1yW0tLSzZWUhxottwdyZIKlmJqMimKmk9VJRkfVF2JV1QNJfUX+C/No1NLe30ZQvCnCxv8KTByX1eJEO+x+xqcqGcWYnI+NjjBTexuWVRuzGM0QYZZ1LcJDnjlqpqSykusx2Zn/JJIhGhASUJQX6QqpaN9NQZMGml7QmniTk11JyyZW0tdRSWyjqSwgvNj8rxKHFUlpN/cpKKuxSezoudcSIiiozFxdR234JdaV55JmVRZOLv/Uq8KofiqbMlSS8Q+x+4Av8+OkeHki+h69/4Co2NuehG93B4798kD//2hwf+sb7uPHqDbS4NeinXuTe795OV9GN1G28hktLwmie+Uc+O/Ne3vLGy3jHxhJMi/W/bpGMk04nSKiVNQbZ9P0CEGDwxU76Dk3hftfN1OlVWJZaayrml3ZGxMFUak32VoQcTkAZHolwQhSlqIeT8tBEeGHFrtqgBMwTmO/+LQef+iHf4wt8/LpCLJ2/YO++Tgavup0PtpsptpyBMmIe4rO7+ekzBbS2VtG20nVKva9HLAU/oZM8sb6mlboVzRgkcja3VUquWURJSQn11RVUqguoamihsqKQgnwDqsIV6Erex1vf8hbeelUNhZoQXXunuHJ9My3Vxdn7IF730OhEDpuz8yIXLgKsrFi3nivfexMtouTMy6Um1CLrRe4bzuD3Fzt0EsnVL8lptZKyKIrwpVzsKG2mes3bMO7rYm5sD0cn85gNXsk1LVZJRc4y3PRCJiXX8idvW8PaxvyX1ft6xKsmFyXvV/JHnchuvdpAJiLRWsoyqijjfYc4tOtJQplJgtEUyaSKpGeSUPd+4us34CosJE/J/HVWqP0gmxsKWZG3kLsuOVIJ4okkEoQWonU0TGxxvUj2tUjHiLQxtlQX+rP9spBeKMeFQYVaLbm55NzqxbqWHIsNPNbW1zyUVEVUYSguikKZG0gmSEmKEIxlFq4yppXVtAmCETHpifnTC8ZCvywcJ+N4+eLrY1CZyyhYeS1/84ktrK5dx4Y3XMfbPvhGVlkkpT2bfM3Wp0GrUYvNX17v6xFL9qzo4L4f8+PfdvDljnZ+/sO3sSrRS9+eJ3jo3ud49A4v19/9bd681Y1rtp8j+ycwbL6axkITTl2UsD/ASF+UwqZirJZTZWYW2f0mkkIOrzTTJFwpBGeQCmRMLkJhD4/85ghTfeOEYxHCrjKqa8rRzBzAO+Nh1tJGZVU5tvkDTCUsBJ1t3Nh0fCF1DksFxdUyqawdU8oisrNBmTTVvvQubD9zM5N07R4hMitByurEVlpGkVNLpPNBxjSrsRTXUmRJovfsZ79xK2uqi6h3/54n8I6fp/ihRoVWgsPFiCUjl1jnr7jz7r188Yky/uvX76RiYBee+SkOHh7l4GfuofyOn3F1axJrwEvXXCU3XFWJVRL8c5JO2WgUl2j0SrJCjKg2C0GpJQIscr9yiTa8lwcfH+XoE3uJTE8xc+ktXHfFanT7/4POQ0foKPoob31DOyUDP+TpKQvd7rfxrduqlc7JrpCMxZbw+txFAJ1O0iyjUQaVNhvdj0NxNVGIoWiMxCstZlIZ0Rv0mE9OJWL9DPR1cf9DIyR2PI63di2lW7eytjyJ5+fv5nHTh1mx5no2F/vQHfoB/xr7CH96dTs3rswT4ZogFApJE5bE3XMQKIsMrVZrVl2/VNkpWDJyof9h7rxjB3/7Uw1ff/gWYgfmqCpNk5fo5t7r/prA1x+h1ealPF/8a8tbuEyEgeFck7JFcglFX+katXKCejlhvZz4YuWJIIxs43czNroeOkCiaxzjZ/+Fd9SnmN/2aZ46PMbhtm/yhWuKSO/6Kv99IMEOyy384gNtqJJJ+np6GB0dXagrh3OC2+2murqavLy805JLWHLPVyQXRLXo9ZhMJ+lYUSNDE/08MGoj9PU70N7yx7TfchXrNR3s/Mb1PFTzbbZsuYEb8noYePTLfGTs3Xzoxs3c2uomODdHR0cHqaVcJXaRw26309LSkg0kCtG8FEtHLoMPc/cdz/H33w3z4b8vx7rqDbTWmSk4so2fvfFTBP7uS1jLNtIqTnfFlZXYZeyf8xUUaaLyv/Q5bZWlzFOclCMrK1cTIYIze3n4rkPsOKDj5v/4P6yzDLD/P3/CgQGw/vlneXtNjP6ffZKnPEX41/4Vn73KSTAY5Cd33sm2bdsW6srhnKAs/rrttttobm7ORrXjWHQ15baFV3a7BRsqtjyOVFRixRjT/bv46t/20PSnN3HFLVW4x/bwqz/7KvEPf4lNV7RQ43mSXXd8hm2rvs9tl7extjBNV2cnX/nKV4hGT3ejTw4Xgrq6Oj71qU9RWFiYDQQvxdKRy/Qz/O6OX4kB91D5yY9x65svZ0OdnuTBh7nvo+/nlw2f5LLr385tW1toqzBm06Fz5Rbl5oeQpFOD08qq0rNAbUBlcFNRasVs0J6yTiDaeTc/eGySRzxNfO/z1+IOPM+939zJ0Xk3Wz/3Tjbpu3jwH37OsC4P11tvppQK2usNTI715ZTLeUJRLjU1NTidzlOVS1pUQ8TDmMfPfOgVUlydE4czjyK3OXvl5FgtSe9Rpvfczbt+XcZ7/ugK3r5BS/DwDr788V1c8qU/49INFtiznV998T4cn3ofxUWrqc3Po9gR5cCBAznlsoRQlEtra6uoS9MyK5e5XTx1131891v7qfy7r/Deq2pYWZTCc+gJtn3xw/ys/HPc+tYbedumSlznewE/HiQcmGfEE1osOAPUwp4GF2VFFkyGU+88nnric/zosJo9jnfy8/c2ku7+Bf/5ax+juiY+/omNVPie5Nt/d5BZnZam21aRMV3GG1ssuG1a4r4p/BN9zLrWUWI3YE/P4vPNsdfrYm2VDYf5NXjhUNKPdDxMABtGnQbh2gtCPODBP9aNN38dRQ4TjoyXgG+WvbMuWittOC3nYUxlEjcyy4Q3gD972e4s0DmwOxwUuMRx5eUxcgmP7KDnkS/ycc9H+YsbNvKWknH6XnyCv/ihhY9/9ka21s0x+uQLfPMLfWz+VB3mFRupLatlY50yqZtgqquPqNmOsbScAnWSwOAe5gwV6PNKkZh0cSCVJCO+EdIot6goW3Eq7hIhMLAHr60Ja56bQl0oexOsYudit53y/PNfILJ0e+gm5piZA2+ynuvfvZU6iThmTZKo389s7wxF1/wxl66qosbxcoZ7RSg3iolDKBHxrIfLidthyG4f+dLpHE/PA/hVdgrr3sCmcgOxkX3sSeSjrmzkxgY72sAIh8ZUJPRGikscVK9ZTYlFnd1PNjCyn/5n72C34XIK7GbyIz0M9uzjn3ea2FRjx6lPEJqbZnpkkMmomrQMB42kAwsXCVJE5yaYmJlnxi/RWqNDm93ecjkvNyaJ+caZObqbF/352Z3w7EZpjLLTWEKcaHaU0Slpjy+ZvZKhWWxPJqncOOlhtG+KYEpSF7WW6FQnw09/T859C/l2G66YKLne3XLuZtZWSn/az+P2RkXFKPsGO8ROp7PfyYfTik1ZX6J8beHbWUTmB5nufZhE9TtYX1NGcWaamakRnrSs4U3ryqgxBpmbneew1ySqRU9ZfQ3llUU4dYpiCXHwf+6nP5AmUVFLqTrCyGP/TkfIRdhaxQprnJh/honBKby+CDG1RtIy6bdEMHvj6LRH2fxLfEsl5RrpH1HUAe8swxM+EhmlTFk2IH250NRlgaIFUrEQAc8IM7MeZqQ9mkyChFI252V+LkBEa80ShrLV5suRJBHy4O3eyWCmEK34u1Uvfh/0MPLIl9mfqiOtbN+g8ZAcfJTb9+ixWOzUFy3cuXQ+WDpy0QvbrWhk45ZmqgtMmLP3vmgxWIuouORK2leWU2zXndhX4vcMe9kWGlZupr3Cik7aoHM3srqxiU21bsw6ib7WGtrW1rL+UpHRdU1UCLEoE85Kc4OTLzDS8X36C/6E2gI7BYlBjo7085k+N+9udZAXPMr+B/6LH/3jp/n+UAEZg5OiPCv5FuVcg/Tffzu3/+QxfvbCPFZXCYWirIzihBdAs+eIecb238///Nun+PRQI/UrimkutqISYonP9PD8r/6Jf/nvx/jpjiClZW6cck6Kukl5D3P06V/wpQ/8gAMpA5k8F+Z4H97D35Bzfy9VBfkUpoYZHOmRc3dx66oCqpR9On+P0FtLKV75djY0yQBw6NBZXOSvaOP69kqqJLrqTEJMFfVcfXUdzWvWUq3ssSKDR6VSyCVIz7bH8WodGOtWsUIfYWzn5xnUNqMvWEWVdpTh7T/lm5/8AQ/uGmRKzj9fiFA7u5Mn7/w8/33Xb/j1QL6U5eN0CEGN7OT5e+/hc19/ioDOhb0wD6f0x/kK8/NCJs1c/x6ev+vv+el99/KLARdFzOEZO8iOh3/L44/tZqB4C7VODRY575fDL0HnCR78wp+w3XITrsJiKh1qkuFpxl74W/qtV8l5NFJt8JIa28U/iJ0rS9xsKLMtfv/c8dIAf+FQSaRWLh2KdD6xObEKtVaH0ZmPSdk0+H+JWBSo9SYMyg1hmgXFoNIZsxHdKtIkqyIkQmmN1uyNZMpAU65kn2iukjmmsv9/AhJBsgVazAVVlNVV0VCTIu4soqzYSWmeEtGVCnSiFtxsvvJq3vv+m7hqdQH5Uv8Zs5TAGKGuh7lrj4d+7ytdHTsdEkzuPUDv3h48ZS1E9o0xPePP3navUu7tctfQXF+H21oiUctFaXMZdr022x51OoPZWUDJhz7NrbdczWWNReQZ5SQzC/MUJ85/4dxP7Y/fD1QaLWqzTYKX9KHiZ2pRgmLbfJM6u5WjsqBTrdULCTkkNRbFqyxKO9ntlFkApeHHGq9sL5l9IURldlK+TkjHPEuRpHuu8iZq3EbyypooKZT0V/5Ol1Sxpi4fl8WGRfqztKaSdR/4ENddtYr6QgvnvaJmdAf7Og7w8FFl15VzgDilvaJI/NZJgbGcVW2baGtrp23dlVy5qV5IYZpvf/zX7ByZy9r8pYgMHuDIs/fzX10xDozNSXp6YoI7k7XzyVZV7LzQOxeCpSMXgUqsqF6U2MegkvRAWQylKJaTbfx7h3ItXo7sCSvtU+5KlfYeu2KdhRCMQjKnOOMrQkjVmIctPx93UQavclu9VGpQdGk8BOP76NE1UFzXzuUykIskshlkEJyx4xMhYnP9vDA4z3Tw/DcdTI7uZ8gbxetoZmNrMytGj+Ib8zIjTVHOTWOwUVBQjFWGQSaQIG02S3OVfpG01hOWdKmALTdfQnNDqaQ8xqy8fk1B8SOlvcf8afG1sq7puN3Etspm6QtXDRfLXhEKKRkwi9Jx6VPZIKTWWWQQi1oKjTMxHqRvWnopo8UmhTqtKAC/imC6ghuuaKKuIg+7SZT5Ym3nDKl7aHKCjvFze6aUctOkPjWPd9JOIlxFY10xrnwnznxXdu7PqA2REJGhEO3L2hIdY3gyQM+0hcaKDCFJ98KJpVqS/nIsKblcvNChN9qwO93MT/vxR2LKXv/EQl6GDxzE56ohr7CEsnMJaxI90qkYU4EokVdckXwSUuIk4TEGugeY1bhwt1/KpS21rE12Ep6cZsp7oi69XZxR8nTL3Cze4MI8a2x2iMnpIJOZSjY0GLEr29ddbFCYSAjGIClxRp0iElNuPo1IGtEnfRNiSsb/XDBCQqJ5fHaAiWCGeUM160tFvSp3/V8IxA6BaBTPK109W4Ryo3Bqpp8ej4nxjKSGzqSkNF6mh3oZnJK0V5TpLe9tpSbftLi/iwJFe6QIjvUyEdASL1rDjS0SiDJhgnEJMAsfWnLkyGWJYJRcv7BgHZqxIAFxlEAygHfOwyN7bbRUF1BbomwT9nIoE3QZGd3KIzWzh7xW1vMoTqS8d7w8W3YmgSrvx+eJjTzNE6PFmGwVXCbpl76qlg0lfUR844zORLIulq3B6aLKHKc2PoXXK9I3EcPT0UsglsBxeRtFEvHPY5r2DwjKcDCgL1OTsiUJR5TNt2fYd9SAqzSfVStluEZjYos43oP9pCTld17SjEXsolYGfUrZsFsGe1JSLcWuC5WegpfZW7Hrom3PydZSHhvro9dhZqqqmAK1n+D0EQ49eT+7BqR5De/gr9/ZQpXTdGLuR1nrlQwy2DEt/mVh5WVNFOdrmQ2E8UWVMLg8yJHLEkFvtJBnL0V9cJY5T4SJ/kFmuo8Qv/aN5BfkcaY77RVHiweDhORQFu0FAyH5V9mMe45QyLdQFlTKYuK8ZyKXED7fDI88GqN5jUjlxgJxLLME4QqqN2rpjU1wYGL6hBPluck3z2OP9TE1FSM5+SwHgwWEjavZVLhwhebihGKkfOwFOlKGODPjY8T2P4+3oZ3yVRuplQCSHB3HO7+TZ+ZKiGkqaM1Xvid2Sc8zNdpP9+GjHOmZISIEcTpFkBSVEjlm66y9o4RDASKiPo6XiTqKZu+ofTmUvXeH+p7H6EjT0FRNrZKOr2intdmNOuBl/3P9KCL1FM0rqTb92+gy1pAsWk1bno1851q08wmiIfG1xY8tNXLkskRQJhENJgvlMpBT4wfpGglwJLyCrY0unCZlzmnxg6cgRTIWZE6ccniwn/5+OYZHGZmeA/8snrGRhbL+ITmm8YmyeHmUSTIvnxnac5BA82WUlxfgktxb0R4anYuaVe1oZ0WZDEwzvfgNRfobZVCoHV4GpvrZ98w4WpuTsroiHIq8P/eJij9AaNEbJC1KTzA+Pcj2bgc1pdI3bmv26mHM5+Xwc91o3Pm4KgqwapWd5ybYfedd7O+cxKfcbjL6CLdvE7tNnzxJqwSGBOH5aSaHF22tHONiV6+XuHfqRFn/GBMz/pM21j4GJU2bYfSoH4cYsHZFKRblCYt6M47iQmzhQYJ7HubZowmCyoPvshAyi3h4fpefTMxHJjwqvjbCmM9EwieqJS5qa/GTS40cuSwVdHoZoFYqVZ0M7DtA93gC3YoGmhya45tknw7ZyUhlC0s5lJWOJpMMfKNyBcQsasi8WKZseyiK4jQzzam5IaYmpxmOOqlrqcNtNy3uy6JGo7FQXCNpji9IanCUUfH7BbVtxuLSk9ZOsm/7Exzwu7EXFVJReOqCtXNFMirKakIIrq9HBss8nuByZfHLDWU4SH/b1MTmphkb9DBd2ES5y0yhw44+FZWUpIvOmQIKi92Uus1okmFS83288HAfE54Mpnw9xuQUO39ziKHJgGjKk6ESwtdhOG5r5dALmRnRGSynlulOI3WTEdKBAXoO2TCqxF7FC7vVZe2lPH4mKaQiBla2mjhGSgkJUt6hIxyliuKifCqkfXqDCYerFM1kmMi8KKdznNpTHpkSnhlibKCX/pFpxn1n/2KOXJYKeiPaPCfl6iEGjs4TSppZ1VqUzXvP3MkadEYb7ppGahsaJZ2Ro1akrqgPnfKcocrahbLGOjlKRAHpT82j4z6mO56ls3+Eoxp539fP1HAvvX0LR/+QEE9ciGt+SNRUP4OTxy67OrDlS06unqN/1yGijS04iwtwXsACjURwltmxHg53d9J/eB8Husfon4pkZfmpUff1AGWo2rNPQ0iHMySDJqour8duMWCz5mevIGV8E8QqtlDqdJHdyUEZ8Mp2rmNFIvjsuItsGCyF2Hf0MecN4s/Wq0ChAC1Wd6koxEVbK0dVCe7iYiyFlSfKGispL8nL7sZ4jOjTQh5xv6icwQ72DBQSTVmx6SME/D7mp0cY7BljxlSNdfONbKzSiqJJEg0qj7XppvPZDmIr11CxqoXm+loaaiqpqSzHMD7D7Ogs08HEqWnUaZCMBvBP9dJ9pJvezv0c7hqgczh0VjvnyGWpoDegcUo0UTdz+VXXcfmlrdQu5zYiqRhMb+e+O37Dj7/2He7//v/j43/5MT72iZOOT/01H/vaL3nqyDMMC/H0jSo7wytftmPOM1G2egXt1/8Rt7RJRMu7MFeY6fgtT237Kd8aX0F9pQNDyINHlNS5XVh97aJq7Wouv/kqNjhE5x3rmpIm7Fe+k7dtzqfEeRploUBhA5V0srI9SHrpFFxcSG2ieyfPP/0MT9t0DIs6murZw64d23n6rq/yncf9pOuu5mMfeRNr7BnMSQ/D+x/k/rse4Ht3zpNUpyV1l4qiPiGJfl44dIRg5AjDff30HJ3JKqyzBYPA0G723ftPfK3HgS7fld09cmpolIC8dyZiWrp7i/6A4Tl8Nwcf+ht2r9/Bm1rKWBl7gec7XuSyFy9hx/tXs6lcWb2YIBHxMfLMAOmqSpzlLlwX8rjC2S7572H+7+ibeN+mcrZWnWHZtbLgKeZltH+CWeXZwobTTMRmTatcEo9KylaEa0UdVXkaibAqojOdeLxzTGhXsbLChlmvOW2k8R75DQfv/SB7Nuzg2pZaWlK72dvxHJt3XcK29zgxPfQou/fPo/7EX/HO8jjphER3rZE8Ia/jkv01AWVmwcsT//hNJkvaKLnlHWy1+Tj0o83sLfwrito/wE21C58Mje5gOm4jYa2nrtCwwBehSYZmwvQGrGxoVFZ1S9qpvBGdJDLyNJ+/dZjGv7yGq99uQbt/O3/5mRDv/rc3s3VLFUXZWs+A7ru4u9/KIf0mvnSNe7Hw5UjHI8TC8wR9Hno8OvLy7biU1cDKUzpDXuZiBvQ2Jy6XqFKt2D0dJxzwMjsdYM6nIb+pArdZhzHrp37mZyfoHU1JGldAcakba2qULqUv6n9AffubuTpviPihn4md1/H+y0q4Tvzy0f94lNhnvsjNjSYhlwzhtB6XW9nk/fR2zimXJYMOrdHFiivWUFPrvjBiUWAuwFx5Gbe1ualynuWCsErqNxZQ3txK28YNrGtfw5qXHmvWyrGRTVuu4JK2JqqdJzZvMubXU1q7njXVeVgkv78wR9BjtOuxubQoC3kDvlHGFantXUiLXq+wlKyjsrKJWsl7lH7J9pipgLLySrY0FWI9RiwKtFY0efW0r/eS1kqa2edhfmYMy9YG3DLwXvFeSHcLrY1NXFt3+qUKx6CsMDfllVBQ2cKl65pori6lyJlPvquAghWNNNRXUVUsxKKktoqNNQZRpyVUNDTQur6WcpvYSmm0cp+e1Z2tZ/Nl7bSvLKPYYTjzivEslNXLBhzFkm5p1ESC00xOTcoRyu7zeCZ1kiOXc4Cy1lGtMh0fmIq3KStEzcpS85M4W3lfa9Bmb2C7YJjcmCo2cuNKSVWW83GqGlE6Wn32ERLHTuv0WDj37IeUzyn/HDt3laQHbQ2svLwGtzpBOjqPb05y81D8NUsuyv4yJ6/cVauM8rf088l9IANQrVGeO7T4WoFye4hWk91C9ZT+0pqFXBrY/PZyyit0JIPyphDR5ptWUVVo4+yUIXCLcqyt4/Kq/+3nXSgrnBU7nxQU5VSMYmetpNHOympabl5NseSImnhAAomfuflobs7l1UKjtWOy1GJS9ohR+l4cz2Q00WQ1STT4w+5CjURmk6QHJuUKlnKqkrgrV7Ya5dzNaj2FLW9g/Q3v4uZmJ1UNl7PlinWsbynOrg49eQz+70NpjQqj1YbVIipA4RMZOEZzDSaTA90F87gMNp2Vmhv+gms3rWNrexvVb/hzPrJlBVX5yznptrRQ7tEyWeoxG60LfaHcQmEwUSV95dSJaqlso/UtH+WWtkKaGy9h3aZNXHVZZVaZnUmj5+ZczgGpWJB42EvEWIpFr8WQiRCNxZiIGbMPO1PucP5DRSoeIh70EJVzN0vYNmSixCT/H4+aKBapbXrJIzdeu1DcPEXE6yOpKDaLcjk3Tdw/TlTryN5zZb2Aq2UnQ1kQqfxKRghHWTVwdkX42oLy7OqE0hd6Nzq9BbMmQSbuz9rZlt2y4/zZN0cuOeSQw7IglxblkEMOy4IcueSQQw7Lghy55JBDDsuCHLnkkEMOy4IcueSQQw7Lghy55JBDDsuCHLnkkEMOywD4/6bnybACrTzuAAAAAElFTkSuQmCC;clipPath=inset(15.52% 0.18% 8.62% 4.12%);" vertex="1" parent="1">
          <mxGeometry x="480.9" y="388.6000000000001" width="199.1" height="32.81" as="geometry" />
        </mxCell>
        <mxCell id="VCK1Q4srkvo5amAOdL8o-30" value="&lt;b&gt;Selected Models after Comparisons&lt;/b&gt;" style="text;strokeColor=none;align=center;fillColor=none;html=1;verticalAlign=middle;whiteSpace=wrap;rounded=0;" vertex="1" parent="1">
          <mxGeometry x="415" y="420" width="220" height="30" as="geometry" />
        </mxCell>
        <mxCell id="VCK1Q4srkvo5amAOdL8o-31" value="Yi" style="rounded=0;whiteSpace=wrap;html=1;fillColor=#fff2cc;gradientColor=#ffd966;strokeColor=#d6b656;" vertex="1" parent="1">
          <mxGeometry x="370" y="460" width="80" height="30" as="geometry" />
        </mxCell>
        <mxCell id="VCK1Q4srkvo5amAOdL8o-32" value="Qwen" style="rounded=0;whiteSpace=wrap;html=1;fillColor=#ffff88;strokeColor=#36393d;" vertex="1" parent="1">
          <mxGeometry x="485" y="460" width="80" height="30" as="geometry" />
        </mxCell>
        <mxCell id="VCK1Q4srkvo5amAOdL8o-33" value="Baichuan2" style="rounded=0;whiteSpace=wrap;html=1;fillColor=#fff2cc;strokeColor=#d6b656;" vertex="1" parent="1">
          <mxGeometry x="604.1" y="460" width="80" height="30" as="geometry" />
        </mxCell>
        <mxCell id="VCK1Q4srkvo5amAOdL8o-34" value="" style="rounded=0;whiteSpace=wrap;html=1;align=left;fillColor=#b1ddf0;strokeColor=#10739e;" vertex="1" parent="1">
          <mxGeometry x="720" y="280" width="240" height="230" as="geometry" />
        </mxCell>
        <mxCell id="VCK1Q4srkvo5amAOdL8o-35" value="&lt;font style=&quot;font-size: 14px;&quot;&gt;&lt;b&gt;Conclusions&lt;/b&gt;&lt;/font&gt;" style="text;strokeColor=none;align=center;fillColor=none;html=1;verticalAlign=middle;whiteSpace=wrap;rounded=0;" vertex="1" parent="1">
          <mxGeometry x="810" y="290" width="60" height="30" as="geometry" />
        </mxCell>
        <mxCell id="VCK1Q4srkvo5amAOdL8o-36" value="&lt;font face=&quot;Times New Roman&quot;&gt;1: DoRA achieves more significant and precise performance improvements compared to LoRA but needs more time to train.&lt;/font&gt;&lt;div&gt;&lt;font face=&quot;Times New Roman&quot;&gt;2: Qwen performs the best in the fine-tuned models.&lt;br&gt;&lt;/font&gt;&lt;/div&gt;&lt;div style=&quot;&quot;&gt;&lt;font face=&quot;Times New Roman&quot;&gt;3: Continuous efforts are needed to explore diverse fine-tuning strategies for the Baichuan2 model to enhance its performance while preserving its original advantages in generating high quality expert analysis.&lt;/font&gt;&lt;/div&gt;" style="text;strokeColor=none;align=left;fillColor=none;html=1;verticalAlign=middle;whiteSpace=wrap;rounded=0;" vertex="1" parent="1">
          <mxGeometry x="742.2" y="305" width="200" height="220" as="geometry" />
        </mxCell>
        <mxCell id="VCK1Q4srkvo5amAOdL8o-37" value="Reinforcement Learning with Human Feedback (RLHF)" style="ellipse;whiteSpace=wrap;html=1;fillColor=#e6d0de;gradientColor=#d5739d;strokeColor=#996185;" vertex="1" parent="1">
          <mxGeometry x="110" y="-20" width="130" height="70" as="geometry" />
        </mxCell>
        <mxCell id="VCK1Q4srkvo5amAOdL8o-38" value="" style="endArrow=classic;html=1;rounded=0;exitX=1;exitY=0.5;exitDx=0;exitDy=0;entryX=0;entryY=0.5;entryDx=0;entryDy=0;" edge="1" parent="1" source="VCK1Q4srkvo5amAOdL8o-37" target="VCK1Q4srkvo5amAOdL8o-41">
          <mxGeometry width="50" height="50" relative="1" as="geometry">
            <mxPoint x="490" y="160" as="sourcePoint" />
            <mxPoint x="299" y="45" as="targetPoint" />
          </mxGeometry>
        </mxCell>
        <mxCell id="VCK1Q4srkvo5amAOdL8o-39" value="Reinforcement&amp;nbsp;&lt;div&gt;Learning&lt;/div&gt;" style="ellipse;whiteSpace=wrap;html=1;fillColor=#dae8fc;gradientColor=#7ea6e0;strokeColor=#6c8ebf;" vertex="1" parent="1">
          <mxGeometry x="280" y="20" width="100" height="60" as="geometry" />
        </mxCell>
        <mxCell id="VCK1Q4srkvo5amAOdL8o-40" value="Human Feedback" style="ellipse;whiteSpace=wrap;html=1;fillColor=#cce5ff;strokeColor=#36393d;" vertex="1" parent="1">
          <mxGeometry x="380" y="-15" width="90" height="60" as="geometry" />
        </mxCell>
        <mxCell id="VCK1Q4srkvo5amAOdL8o-41" value="Initial Phase" style="ellipse;whiteSpace=wrap;html=1;fillColor=#d5e8d4;strokeColor=#82b366;" vertex="1" parent="1">
          <mxGeometry x="280" y="-50" width="100" height="60" as="geometry" />
        </mxCell>
        <mxCell id="VCK1Q4srkvo5amAOdL8o-42" value="" style="endArrow=classic;html=1;rounded=0;exitX=1;exitY=0.5;exitDx=0;exitDy=0;entryX=0;entryY=0.5;entryDx=0;entryDy=0;" edge="1" parent="1" source="VCK1Q4srkvo5amAOdL8o-37" target="VCK1Q4srkvo5amAOdL8o-40">
          <mxGeometry width="50" height="50" relative="1" as="geometry">
            <mxPoint x="490" y="160" as="sourcePoint" />
            <mxPoint x="540" y="110" as="targetPoint" />
          </mxGeometry>
        </mxCell>
        <mxCell id="VCK1Q4srkvo5amAOdL8o-43" value="" style="endArrow=classic;html=1;rounded=0;exitX=1;exitY=0.5;exitDx=0;exitDy=0;entryX=0;entryY=0.5;entryDx=0;entryDy=0;" edge="1" parent="1" source="VCK1Q4srkvo5amAOdL8o-37" target="VCK1Q4srkvo5amAOdL8o-39">
          <mxGeometry width="50" height="50" relative="1" as="geometry">
            <mxPoint x="490" y="160" as="sourcePoint" />
            <mxPoint x="540" y="110" as="targetPoint" />
          </mxGeometry>
        </mxCell>
        <mxCell id="VCK1Q4srkvo5amAOdL8o-44" value="&lt;div style=&quot;font-size: 11px;&quot;&gt;&lt;font style=&quot;font-size: 11px;&quot;&gt;&lt;br&gt;&lt;/font&gt;&lt;/div&gt;&lt;font style=&quot;font-size: 11px;&quot;&gt;&lt;div&gt;this is what&lt;/div&gt;we are currently engaged&lt;/font&gt;&lt;div style=&quot;font-size: 11px;&quot;&gt;&lt;font style=&quot;font-size: 11px;&quot;&gt;&lt;font style=&quot;font-size: 11px;&quot;&gt;&amp;nbsp;in --&amp;nbsp;&lt;/font&gt;&lt;span style=&quot;background-color: initial;&quot;&gt;fine-tuning the model.&lt;/span&gt;&lt;/font&gt;&lt;/div&gt;" style="whiteSpace=wrap;html=1;shape=mxgraph.basic.cloud_callout;flipH=1;flipV=1;fillColor=#1ba1e2;strokeColor=#006EAF;fontColor=#ffffff;" vertex="1" parent="1">
          <mxGeometry x="100" y="50" width="180" height="80" as="geometry" />
        </mxCell>
        <mxCell id="VCK1Q4srkvo5amAOdL8o-45" value="" style="shape=image;verticalLabelPosition=bottom;labelBackgroundColor=default;verticalAlign=top;aspect=fixed;imageAspect=0;image=data:image/png,iVBORw0KGgoAAAANSUhEUgAAA4IAAACECAYAAADFuJXhAAAAAXNSR0IArs4c6QAAAARnQU1BAACxjwv8YQUAAAAJcEhZcwAADsMAAA7DAcdvqGQAAEMwSURBVHhe7d0LfFTlnT7wJ3cggXBPuDgRHMWkRaNRhGKoJkarlhFtqa2SxbRra8tO0tayQmndbbcU+k+rJbPpxV4iDdoiVnHYrqsxaI0sljU1FptoHcEMiAkK4RZuCeT/vu95z8yZZGYyCQlJJs/XzzRzzpxz5pwzsc6T33uJ6RBAREREREREw0as/klERERERETDBIMgERERERHRMMMgSERERERENMwwCBIREREREQ0zDIJERERERETDDIMgERERERHRMMMgSERERERENMwwCBIREREREQ0z/RoE68oKUFBgPlyoM9bCVVACd7NaCNC0uQQlm5v0UifNbpSI47hq9bKp1oWCYjdC7EVERERERESd9HtF0LG2ClVVVahc5kGFCnnZcFatgyPNeL1HMrPgWW8NfU1wr/cgy64XhxwZis2ATEREREREdH6c16ah9gvSxf+K8Fasw4+s5umKYWClTwakgq7VQXs+8lGNHWY1sXkHGvPyYfeYy0bVUB1TVQnle5XAvdl8H2tVUm8XbF2ZCy6zymg5pnE+Rnhz6WqnXFdnVj7LdKTrsk+w85DrlsMt/lkeokJKRERERETUH/o9CLpXGIFoDVbCmaNXanXbPHBuMCqG/tdkQKpAhli/bpEMjlY2OJbaUb3dCIh1G6uRMc+mnitpDqwTx5LHK7WbgbEeLm+usW6hGzUqcMqqpL9SKdc1ba6AZ1mlWlc1X5y33Eyey+pGFOlti7xrdGATr86X60phLy9EjXpeCaenQrweap/O55EOR1kpHOKf0jAV0kOPfw0tvy3E0Wd/iBOvP63XEhERERER9d75aRq6wQls3WFU2Cyyi1cCq2VQ9FfE6suXozpvZeimozmLke+Vx6pDDYoCt7NUGJdv0euQBeed2epZui0Lnj3iLCwVu8LyevVakxfIn6eDZ06uiGdSExobZMWu8zEdyFXBNR0Zmf7nNtVENdQ+Qc4jAokXzkHc2Klo31ePI089gI9+cj0DIRERERERnZPz0zQ0zYEiuwubOg/0IsKTo0wGxXxUbzSaVWYtq0SRt7DroDA+6Zhjq8amshpgvhGsTP4KYyWcmXplEE3bq2HXfRdLF+qVqPdVGlFboyuCkqzYGdtWRdy3sTf7BDfqE/dgzB0/wrgvbcDE+19E4ow5KhAe2+rSWxAREREREfXMeesjmH2nE54VgX3hfH3rllQjX1fLpOziSmSsF+vNPnedpC8qAjwZWNypqWm6DXAtkcdcg2q9Lpj0C+y+JqsVniy1LrvYaOapzmebjHJqLZxr4avuRTY6aU/2yUbuwsj7CMaNnaZC4Zg71qL1RRdOvP6UfoWIiIiIiChyMR2Cfk6anMai0FuEquLAiuNgIkPgkadWYNwXK5E44xq9loiIiIiIqHsMgibZv3CF2SBUNu10YvDGQEPLb5bg7KmjmPC1Z/QaIiIiIiKi7jEIDmFnDr2vBo8ZffO3VV9CIiIiIiKiSJzXeQSpb8k+gyOvuB3Ht6/Xa4iIiIiIiLrHiuAQZ1YFx971MyRl3qDX9txbb72FN954A2fPntVrqDfi4uJw5ZVXwm5Xc4kQEREREQ1KDIJR4EC5AwlTMtWIor2xceNGTJ48Gddff71eQ+fi+eefx9GjR/GZz3xGryEiIiIiGlzYNDQKjLziDpxsCDdhRmjvvvsuJkyYwBDYh2688UYkJSVh3759eg0RERER0eDCIBgFkrIK0HHyCE7v/oteE7mdO3diwYIFeon6Sm5uLt588029REREREQ0uDAIRgE5aIx8nN69Q6+JXHt7OxITE/US9RV5T9va2vQSEREREdHgwiAYJRJnzEFbLyqCREREREQ0/DAIRomEGdfg9Hs9rwgSEREREdHwwyAYJRLSM9XP3vQTJCIiIiKi4YVBMErETzGCYPsHDeonERERERFRKAyCUSTxwjlqgnkiIiIiIqJwGASjiKwKsiJIRERERETdYRCMIjIIcsAYIiIiIiLqDoNgFDEHjBlKVcGmzSUo2dykl863OrgKXOJ/iYiIiIiGl74Jgs1ulBSUwN2sl9EEd7F1uTfkl/Qgx6h1oaCsp1/d5fkUwFWrF4OS71eAAuuj2C32jJwMNeo95Dn2cN++YA4Y09bUx0FQXo/lvpjBTV5vzz+L3qkrk+8d/HfKeO08BboB+myJiIiIiPpSnwTBpu3VgMgg1dv78utxNpxV6+BIE09l0DynL9/pcJRVwZmjF4OS71eFqqpSODKdqJTPyxxiz17IcfZ+33OUlHlD31YE5b1fAZSqe2M81i0aiCsDssTvmGtjp7gnzq/Ck4UsvUhERERERN3rgyDYhB3efKwsK4J9644gYc1SaStzwWUGOmuVybpObiPWuWplFU9WecT+S1yob3Ch0Ff18aoKn786ZTTxc6nKkLHOqBKJh65Y1ZWZ1SSjOmi8dzdVpIDz0RUwtZ+/Kua/jhJs8hqrVHhS72ucl9vcL8i1u8Tx+7JppAyCfdpPcG8j6jMzuoRaeS8Ky+uBLcvVtZuVOt99t16vKdhnbmHc39CVZPvSIji2VAS8XrfRBeTlw66XpYBzsH7G+g8K7qAVRP17alY4redqbivXrXAD6nexuwozEREREdHgFdMh6Oe9I74cl+xZrKpEMmx575RVPBm21gCr1mHO9hKswUqjiiS/SK/PQGWZDZsKapBb5US2OIQMAGqbCzaJL9qy+iTXy2Nsgq1MPJdf4FdDhE0H0tWXcQ+cG8T7wFwvj7ccWCurfvILvfncfx62jca5BZxPUGL/Yi8W+97LPB8rcxvrdcj3KkTjUvG+08V5bbRhXTHUuXiWVYr3gz6XlcBq45xktVOGlgqbfD34+Rx6/GvoOHlUL0WmrTHyhHJWfPyJGVdi/Jce02u68oW+haWoKvbfCbXeW+RbJ69lOfzbBCzLz3BJNfLl5yarvFrAZ69+N4JXUuWxauZXIXeb5X6pYzaiqCoXNZbfJyvf8X3bu2BXvxvyVfm7IvdbDK/52cn11t83uZn8PdiWa1yH73c4fMX3xIkTePaX/475B59BTFw8EBsnHvGIEQ/5PCYuwb9Ovx4Ta64zXo+bZEds8jh9RL+YpBTEjhyDmBGp6mfsyFTxXP9MStZbERERERGFds4VwbptbtSXF6rKyfIt9V2a7jV5gfx5+itzTq4Ib0KzF56Fub4v7enz8gGvrg9Z1oe0sMgIE2k22BsadWXJgVz15T4dGZn+5zZrqUgIOJ9IWM5HhhGjQrRcRFAh4DrSMScvWANFB4pUyJPnUo/GvU1oRD7m6DCUPV/dkZDk3IAJPXjEp2ei42w7YsakR/Q4FT8GIy6+Tr9bcOmL1qkmoaUi1oWu2DXB68mC807/p5d9pxNZHq/6fFTz4WUrA0Kgz9Y1RuDuJlxJ8pgo36QqdKoauGxx0N8XGQDlZyUDbL35uyVlOrE4oImwBxUiBFbnVfqbDssqqK76qc9bVgH1dfRE3PgMjF3yS4xZ/BDG3PYDjP7USiTnFWPUtf+MkVd/ASMuvw0jMm9A4sy5SJh2GeImzkDs6MmIHZGi9m/b/SpO7ngMx//8c7S++J++x7H/WYsjT38bh3+/DC2/LcSBcgc++sl12P+DK9D84Cz188PSBTjwnwtxsOKfcPiJb+DIlu/h2AsPo3Xbb3Hir0/iZH0VTu/+C9qb3sKZQ/vQcapVvScRERERDQ/nGATrULPFYek/VgrHlhr1Jd2v3t93sLbGCFAywFm2UyHB1oNwdk4s59Mj4lo9uu/gBhFw9Fr4rqMJO7bWq2fdaqjGDrMppQjS4Yz6xD1IyXNG/IgbO1WFx0n3b43o8X9ZyzFqwb363cLLLhbXvtbetZ9eBJq8oe+NfCVLBDJviCahAdJEsF7oRsVmt/jdywoS6o0mnrIKKH8nK5dF1nswICxKsvrp+70WjwhCamfxEzKQdMknMSLrRoy4bCFG5nwWo665G8nzv4jkT96HlPwSpNz0rxh964MYs2g1Uhf/BGPvKsfYwl9j3BcrMaH4WUxc8RdM/l4DJq2qxcRvVmP8V54Ur/8KqZ8pxeibRbD85FdFqPw8krJuQsJ0ESZTpyBGvHfH0Wa0N7+Ntl0iTO78E06IQNkqAmXYEPlvH8OBn+Sh5Td348hTD+BY9U9x/P824vQ7NWjf/44Ii8eMCyMiIiKiIe/cmoZam8xpRlPHh5C/9de6+aPRVFPFnYUOODwZlmaXOgTJwVnMdb7jWZqGqueFcDWI0LkWWO7bxmzaZ20aaN1Pno/RJNRsGmo0W5XHkm8sQ2zn5oRms89g56P3y5SDk8h+kQ7AbDYp1jgWih/z13VqGupvsmg2b3TCf+0OcU88NqNpbV+QX+yTMgtUKIzEk08+ic9+9rN6KQhxD8ymv1JAc9BOn39AU9DOy+rz9jezbaoVYTJHPLM2DTWb/AapGvrunazaqWOJ++drqmr+Hohj+5qLyvfRn5nd0jzV2uTTt5/RNDRgO2szVvF+LvGpBW02GoJsGrp161bceuutes35d/bYhzjT8j7OHBKPlr04e3gf2j96D2cONuLs0Q/RcaZNbxm5mMSRiE2ZjPhx0/Fq+kx4Ro1BR9IoxCaOEq8ZD8T0zWDERHR+xSIGl46Zik9O5vBbRETDwbn3EeyBzn3KyAgqvr5pfaD5u5eoalLijGv0mvC6DYKCCnRb9IIZ2tWCGfKzdICzhmwhWJ9CFZpFbFb9JtMD+/DpgOfw9eHzCwiC6r75+1kGBEG9rXG+Rjh3Q//OhQyCltAoAp/vjxLmHyoCrsN/jcHO0zQYgmB3ggVF+bP9wHvieVPYoPjry27AayIIElH0uXbSpbj/0k/rJSIiilb9HwStX6iDVuCGn4Bg1SksnQvZ50s295t4/4uIGztNrw0vkiBIPTcUgmB3zKAog+GZj3bjjPjZvv8f2JaQgIqPLdBbEVE0+vqsW1gZJCKKcue1Ikj969hWF45vfxSTV0U+aiiDYP+IhiAYyi89L+B/Puh5P1EiGjo+NSUbX7HfoJeIiCgasTNPFGlvakBCeqZeIuofZ8G/HRFFO/57TkQU/RgEo0j7ByIIRtg3kIiIiIiIhi8GwSgiB/1ImMKKIBERERERhccgGCXkQDFSPIMgERERERF1g0EwSpzevUONFBrpaKFERERERDR8MQhGibbdf0HijDl6iYiIiIiIKDQGwShx+r0diO/FiKEJCQk4deqUXqK+Iu+pvLdERERERIMRg2AUONXwgvqZlFWgfvZEdna2mu+O+taLL76o7i0RERER0WDECeWjwNH/Xq0Gi5mwzK3X9Mwf//hHjBo1Cnl5eUhKStJrqTfkRPJVVVWIjY3Fpz/9ab02uvzcU4XnP3hDLxFRNLpxyuX4qr3nf1wcCjrEPy/v3oCOjjOIiYnTa4kCtZ89jQtSs3DJxHl6DVH0YRCMAh/95HokZd6A0bes0mt6rrGxEXV1dWhra9NrqDcSExORk5ODadOid9AeBkGi6BfNQbD63d8g98K7kRg3Qq8hCu6NpucxMn70gIfBurICLN+iFzKdqCxzIF0vDh9NcBcXwtWgF5EF54Z1cKTpxbCMfRuXVsGZo1dFrA6uggpkRPxeQwuD4BAnm4UeevxrmHj/ixwxlM4LBkGi6BetQXB3y18RF5sIW+rH9Rqi8OQfDvIv+pJeOv9UCEQpqor7pruJPF7N/N4EooEmw9waYJUZyPozoMlj1yC3yolo7+TDPoJD3PH/fRSJF85hCCQiIurGweP7kJ4yUy8RdS8+NlE/GwDNblR4nKjsEgJlUHHBJUJdQdlWEZBK4G7WL9W6ULJ5p7FuswsFBWKbAuP1ps0lqrLoXlEgtmlSxy9Rr8uHSxzVIMOifz/xXsVuEcPM1/zHKikT7yW3eUG8j3juEvu4asVG4hyM/fWyPl+32Eet9x1PhjvzvVzYKo8pz0sJfN+usuFca4dro3HW/nPW1yHPwXJOxnkb52Fep7oG8X7+feW28pyWwy3+Wa6uXy6LfdTxfHv673mXa7VcU9jzHxwYBIewE68/pUYLPZcmoURERER0frzX8gae+8fP8MsdX8H3qvN9D7k+KLstRDNQNzC/ClXFeXAstaN6u4wcIoSs9yB/3iTxvB4ub64at6BKB6b0RetQuhBwrK3CukXiCKurkb9BvK62AZbLoCOCjapAynVV4att9Z4MrJTbjBMLImDmin2cOSJsrc9Apdq/EhnrzeDlRjVWqnVO8WyHCpNrUJ1Xqd/LibxFRbBv3aHCU9PmCnjy5oRvAjs9A1nypzjnCps+zoYMVJiBzXdOxqIMj4uXeVCjA9uOrXYULUpHdrF8f7mvE55tTXCUlcIh/im1Xn/OYjg9Nca1NO9Atb1IvBbkWtVr+v4NgSa8DIJDVMfJI2jd6sLIK25H/JSeTxtBREREROeHDHoy/K3/6zexu6UOGWMvwydn/BOWXvmQelw47nK9ZSceb4iqkgO5ZsARISV/6yYdQmRAkSuz4LxTVxJzcuHocpwmNCIfc3xBx9hm5x4PHPMjaxCZZQ1qC3ONZpTNXngaXChUVTJrnz6HCl0Qe9js9WjcK87ACxFarVFJBLW8amyq9Ye0sPY2ArZ0NIlzri8vNKpwS1wiAmvmOVmkz8uHZ70bTbWb4LLL1y0VPOu+XaRjTp4HFbKCuNEFu7xHwa41zYF182uM4/kqiINX0CBoLZGeS1nTPI5RKu3KLMmqsmoP3ifg/Cwl3u4ZH3ao8wkky8e67NtTPbyenpIh8OBvC3FW/GQ1kIiIiGjwqvvgORUAU0ekqdB33zWP4FOXLMN1M5eqABgyBKbNEVHNhTW+5pKh6JCyutoIKIoRtpTaGri7VBbTkaErc4reRtYS3ds6fbNuaNTfaetQYw5aE44c0EZVyeQjXD+7el3J9DOC2hoRaLuGuACyWesKWf00riprmVlZFI9w/SnVPa3GmvUeIyhbK3hrHXqj4OS5Yesa1Vx3sRnCg11rjlMtl6KidzniPApZEZRlY3kRlSKZd/8LqMkPxReA5C+LLKtG0CFV3rAIy6eqfbOvZC0/NGB5N6FLBkcj/KXDURZpB9lsOLspiQewXnsPrqenzBB4pmUvxn9xA2JGjNGvEBEREdFgIiuBz9T/P1X9+/xl3w8d+oKS31srkb9VV7vCFGjSZbNKEXF8AQVZIlDpfVYApTocZc936D6C4rv+KhGJlgRuo5qPim/axvvJgojRnHK5Wq4BFqrDhJbmwEqRHYwqmXiEqYplF1uvTRd2xP5FdiDfrGYGqIfLPN8ljSjS39PTF60MuEfhCz4yNMsj6Wpomg32Lfp6RThUTU1FBshdaPYRVCsMKkTWA2YlNNi1WvpdLodZnR28go4aKoOTb0ShWhdK9izGunk7UOIrmcqAJ1OvrJrJXwrZpfIrcGz5pWyxLNyA2zNfwNOqHKyHd93rEr9kep47PfQtRKhbg5XGsTfasE7+ksob2OV9TMb7dR7FR3YA9d65DnO2y+Plw17uUuch/zqwUqwpLDeOJpeLvGvUtup8tol32CLPXZ5jERqXyM6hRgh25sjq4SbYynJRU2CsV+S5rwLWmOeorsWGTb5txDnL9snm9cjqYNDr9p+n8X7GJqG0f9CAU2+9gNb/XS+WOlQIZJNQGgj9N2roZORMTsXpo+9g5wm9KlqNtGHu6Hjs378Lu/Sq3pmNu2fZxJ07iV37q/FMi14dDfrsHg1CQ+DaonXU0Nr3/wuz0/OQGDdKryEK78+7K0WIK9RLPffTbXdh7Mh03HPlQ3pN/5CFEvWdWjWnlN9hrSNsDiEyB6wGVg6B/nXRoNs+gnXb3LBfEKJDqSKijOqs+lkRppzIUiXSB/C1gI6WIsDJvzToKl7oKqP4xQ35PlpmRpdfjHQbfOXv+vJG1TG0qqpUBK1NaAroGNtpT92JVHWiXSIDpnguO4rKtsN6E6MyKI9XCWemuB75iynb/6p1VSi1y7K62MZ37Z2Ca4jr9p3nWkfXErxFy2+WoPm7l+DAz24TIfBRjJq3FJPuf5EhkAa/tGvxjVm3hn9cOFtvnCr+I3kXvjPrNnz/sjtwg14bnWbjO5d9Dg/MugNrr7wO5/bf6KmYOzkTCyZnISfi77UyPAb5LAIe1w7wZ9CX92iwieZrIyIr2ST08MlmLMr6V72mPxjdngq35mNld33qBjkZZguWiBywiiHwfAkZBGXZ2ChrlqrqWLAOpUaksXRWDUV2prR02FRtbL3Bg2Do99F87ZT9ZGfTjOnG86xli/X7yLKuB95wbXPNc5KjDpnPZYlY/uykrkz+ZUWHPFnlM8u+4dpKh7lu33nK9w7ZERhqovixd/0M475YicmrapGS52RzUBoaUi8WAUWGlDCPCVP1xlMxPSHeeJqQAv2vc5SagHEJxrOEhPGYZTw9j8zwGO5x8QCcl9VA36P+FM3XRkRWb324DbMmzcfYEf0Za4xuT4FdkuS6oVcNlM1SuxuplPpWt30EjQ6XwTuURvxrrdrf6iFXhabt1WqUn666ex/dZtdaJRShbLnHHx7rfQFT9lG0w9YHv0zyLxQ18/2/mHXbPHCqqqWsEhrrgor4ukMb9Yl7VBhMnHGNXkM01LTjUOsB7A32OHFYb9OAX3lfx85j+/Cq9xU8qtdGp5fwuPcdvH3Mi2e91XhZrx0IbaeCfCbqcRAD27998NyjvhfN10ZEppPtx/C2CIKXiiBINFh12zTUkB60Q2kXenSjwi4jecpJH6E7moYrX3f/PnKuD38nVvGQ83dY/gqS5anQry0H1hoVPH/H2FB1tzBE0JR9DM0KqeykG2eD7qy6RsRWLei1R3rdRNHsMF77awWcwR71r+ptgOYPqvHg64/jR96o6xHWRa33Gax4/Qk88oEZhAdG86Egn4l6PIMn9TYDZbDco/4QzddGNCACBiscHGQ1UGIQpMEs6GAxQ1VgR1ki6g8RDxZzSRGeTpsgnhzACzUVKDfWUp+6Ca7c2ZiOU9i5y4UH39erwzL3AfY2/xjOfxhriaw4WIwcnM4/UJwcbK5vv1vIfl2FaFwa6UjmUcIcEHBhadch/vVr6M297sUAI/I7Y6G3KPxUA0JvB4v5w98eVD/lSKFEgxWDIBH1SH8FwdnT83FD8gjglBcPv7dTrxXGXYUvT05DMg5j59uv4IWU2bjbNhtzkycgLe4kmk/sx6v7XsJjHwarrqSK416F2ybYkBY/AuOS4nHs5GHsP7oTj77zepcRGzufw8y0a7E4/WLMGJmKlDOHsbf1Hfz37lfwcphRTdPGivebfglmJ6Xq9zuGQ6e9+PN71Xj2mLHNDRfeKl4HWlt34pG9XmOlSV7ftExcmZyM5ETxvmcPo+XUwRDXeH6C4DnfF/MzE9uPSwRaTh7AW80voXxfmh71FNh/6E94zNIeNdQ9OudzGWkTn89cLBidirQRI8TncwB7Dzfg8Xe7/j749GCfwPPzYkHGdbhlwnjx+9uK2t1P4NGWfry2XtznUC5LScanJkxEbEwc4mITxCMecRAP8TxgXYxcJ38ay7FyWa3ruhwvlsXXDuMNBkhEQVAHErtlRO+mzS7smOfsw75LwzgIrq6WvQGQL0eUt9xPOWJ9hScLyOvF97hBFgQPnWzCum13404RAlkRpMEsqoIgEfW//gqCt8124p6x4tvx8Z24vfY5vVaY9jlsmGkTX6QP4GXPQcyaeTHSOjdq72jFzvcex4N7rUFpLr4/71rM1mPQdNZ2ahce2/kUnrF8qfafQwMeOT4VRRNTocf18BOh7tG/PRGwn2Em7pl9E24Zm9x1H8EaupblfAs3iO+hrYdewpKdrxkrhQWzivAvkycE3V+kA+za9yfc/641epyfIHgu92Wm7XP4rs2GsV2+/7fj0MF9ODVehHSx1PlcQt2jczmXtCm34XvBfn8ksc9jf38CT+qwburpPtbf40dPid+Jccn6Ff9n1B/X1tv7HMrEs3sxvd3yB5k+ECP+kSEyNlY8dIBUoVKGSLEcK5YT1DoZIkVwjEv0vWaESSNQ+oKo/hmrAqrxmm+duY1cr1+X77m75XVcN/OfwgTBbgKaDhz5dhdcaq5kY4opWEKjCjS2SmNqLLFtUV41llumsVq3COo9XGqKLUFPLZWu39u3vlPVTB7XHKDOfxzrFAFyf/+y8cdxPVWVPNad3k7n7kS2dYory5Rdxr5FyN+63Dgf3zkaOp+Lmqpra75/GxWm5Txv1pHUBX3/1D2xhjC9ff4yD6p9f9APrMpa74d8/xqbEx5xbaqCqO+1CoLqWP7Kogp8+v5bp/HyrTOnObOEUqueBkEZAjf+7d+QFJ/c71NGEJ2rCPsIEhENtBTkXHgxxosvws+++yc8/Paf8FjTfhySf8qKScbsafmdpjxIxTgRAluPe/Hynmr8aOevcPvrT+Gx/QfQKl5NSJqJRTNCjPaUOBN3T0zGwUOv4xHxPg/LSuQxuZd8zYZFM81pL0yp4kv8rbhNhUDxxfvYO3hSn+PD776KV8W+rRH8yW1cYgoSzrZil/iy+tjbT+H+ml/hwXdex85T7eLVJMxMvxb3GJsOjJ7el7Q78N0MHU7aRZB/z3JPWs9grA4nvdLTcxl/E76jA13bSfE79M4TuK/md/jBew3YK2+v2Odzl9yEgL16s48p1oabRQhsPeHFq/sb8HJLM1oi/bPrILjPHeKfviaPeaajHW1nTuFUeyuOnz6MY6cOquH1D554Hx+1NuKDo+/i/SNvwXtoJ3YdqMU7H72Ktz58BX/f/xL+1vQCXt/3rKrq7djzNLZ7n8Qr7/1eXG8lXtxVgRc8j+C5d36O/367DP/11sNqEu+n3vwhNr35fdVM7/E3vo3X9vpiRQhNaGzoZjT0Bhca5bRZKuTIybaz/NNAiRBSIUJWkVnREttWiGCjBt/b4ATK18DdbEwSLgebUwPzWUJgdV6lsa0cjM6z3De2gQwzyz1yiir5WpDpsELwTVVlBi7rucvAJMdZ0MfsPGVXfXmFCJXyNXEucGGTnqQ72LnIycwdDf7B/uo2yiBmjuLelRxFPcsymJ65/Ry9bDCn79Ln4KkImNzbvVUEP/3+fiI8yukHNuj1cpwHGTj1ccxpvOTolJXic1PhsptRKvcersf3qvMjfshK4JGTH+JTF39NH4Fo8GIQJKJ+loqrriyCq8vjLiyTbdUiloTktgb86P+ewCP7xBdr8eX6yXd+h4dEsFMS0zA34HgHULv3KSypfQIPv/c6Xj10GDi2C0+KgPXCMfktHhibfEnwL/HxSTi23437dlbjWfklfv+rKH/9T3jhuPHy2JSLscB4arDdirtlJUeEwL3iy1XR68/gMX2OL+97BT96/edY8Y6xaTgtR3bikb/+HPe/WY0n1WTjh7GzqRoPenbjkNwgdjwuzVCb9onpk76OJz7R9fGLj12ht+ikR/clFV+eNhNj5dM2Lx6tq8DDeyz35K9yP+Nz6JUenss9F2Ziuvwv3gn9O9TkRTP2o3bPn+B8+x01SmpC8kzc5vtC2Jt9LEakIuXQS7j/tSfwIxnK3hS/h/v0a90ZTPe5D8XExCI+NhFJcSMxMmEMkhPHYUzSJIwfORWTkjOQlnIRpqdeCtvYj2PG+Ctw0YSrMWviPGROysXH067HZekFuGLqzbhq2kJcc8EdmGdbjGsvvEtVa/Iu+iJusN+Lmy75Gm6eVYyFl34Ti7IewB0f+zYWz/431U/r7uw1uGq6Q59NCHLaJ/00pEwnFluCogpBOtSo0cGtAUhs6xskLk0ExIX1vnmPAxkB1BcgRTR0LHXokdCbsEOEHmcv5lbzT6mlWc99byPqRTAs1APaqcqgZTqrrGUrdUBKx5y8LHj2hDsXGYiB6u1yGzlqu/VaglD3QoRmGXQ7h+cAMiDL85OV0sB7J+9P4B4i5KnqrD/YNe0Rn+YW/wCDsgroH10+MhOTbbjp4mURP66evkj9wePVPX/URyAavBgEiaifxYvANQHTgzzSgreBDKEdb3/4J+g/Svvs3LNfT3WQjHEp6on2Gh7dHazX12E82qqbkIov3DONZ4HO7EPN25339eLJY3q/hBTLfuKL+MSpRhO+E+/gkX+E7GnWrZcbX8KzXZqcCgffxx71XT4eyTJv9pXYeCTEdX2kxMbpDTrpyX0ZORezdavIXR8+F6Qp7S6U7/UaAbc3enIu467F3GTZRlj8Du3v+juEg69j90n5JBkXTdRV4t7sE+Awave+pn83e2gQ3OdpqZn41CXLcIsMVZn3Y9HHHsBnPr4Kn5v97yJU/YcIVWvxT1eUoijnp/jSVS58ec4vcN81v8a/zHsUxZ/YgG9c+wfcn/skHvjkZqy87r/wnbzn8N3rn8eq65/FCrH8rwuexrfE63I75ycq8bW5vxX7PyKOVS6OuU4c+8dYIt7j85f/AJ+77N/Fe38Ht39sBRyZ38Ktl35dnduNF9+H/Iu+hOtm3oPcC+/G/IzPY+4Fn8Gc6bfhymm34vIpN2J2ej6yJi9Qc7nZJ8zBhFHdzFIqRwDPdKOmywcejgxBHhFq3NhUbg8TgJrg7TZlBiNDon7a11RFzKy6iYel+Wdwoc9FBmJ7+Sa4N1fAE6YaaMq+U1ZIxfYiPNdb5lz2UXM2y6auuiIYbrouSTVhFVlWBVY/2XQ14Bq76RPY2Yj4FMy13RHx45ZZTvVHiDc+eB5NR3v1gROdNwyCRNTPWsUXaV2hCHjUo1ZXOCJzGHsa9VOrE83YrwseicH6A6bMxM0X3oRvZH4OP7myCL+Y+3U8MUn2XQzj1AE8pp9aNYsAqRroxcSJr/+m2Zg5wnjWfPQVnHuvqlTMnjgXX551K75zeRFcOV/Fhk+E7ut4Lpo/0k0IOz3+c0+I8mVP7stkEfTVk8PYu08HmM6aW2HpXtczPTmXcfpcOsQrI2/FN8S9DXzMxjj9X8OEWL1Xb/axOn0AtS36eU8NgvucnnKRqrpdLUPV1FtwefqN+HhaHjIn54pQ9QkRqq7GjPFXwjZ2NqanZmHK6IuRljJDBK0LMG7kFFXpS0kcJ75Ej0Zi3EjVxy8mZmAHiomMUYlzrygJaIYoB4uxLncmmzpC9cXrFGgszSVRuwkuX7PTdNjsaq2WjgwRQFWFTGmCe70bWWruYTmHcj1cG82GlE2oq5XbyWPU6yqcoI5vPI3I9AxkbbE0txTBy9VtAA51LpIx17OrHMifFz5OKjp0y+2dd3YNZ6qat7DIqO4170B1d9eWmY+VZaUijBb6mtSmX2BHvQibvrO1fI7ytf4iB4iRFe66Dyz93YkGIQZBIupnJ7EnSNh4+O1qPNPbL8oRkYO33IsnrrgDX75gNhZMtGGmrEKeS6AK2m0qGcmqgHYK+81KYy+lTbkVrnn34vuZ1+LmyZnIGTMB00eJ4/fT9+e2M8ECeoPRjLYngt2XpCSjStp+GLuCVTn7S7BzidcVzphUzBL3dUGQx6xEYxOf3uxj1d7a95PFD6b7HM1ynKhaa9fzBRuPNVgcth+ZEWqyugaaTDsaV+vjrPDAucE/eIo5x7Gcn7hJBlAdYoz3NPoLmv3fsouNPoPGa2vgna7Xq6qa3mdbRvdVM6s0B9ZZr3NbbkQjmIY6F0leky+8dcsI3aG2N5rc6vdZ3Qh7RNcm+xXq+yj7O4rPsnKZxzefc8DnmJOrjx8Y+vtK9tSbVFWQaDBjECSiKJSKu7MduG1sKhI6TmGvGnzlGTz42o9x+ys/xec+1P0K+1QcEkO0qIzI+NvwPfFNZ7oIqm0n96kBbh7+++9we404522vYOfg6OY1tJ09jJ1Bgm/Ao2W/3ljrzT409MkwaGlO6BuQRIanYM0nZTUO+ZjTJdBkYHGZeZxOg5KY7+E7nnVwlM6DoMigGOQ48nzMfYodYhv/a3JAlIBjBDt363Vamkx23jdwOcS56CqmY37X6p5P53OQ7x/yfS33o8wJp3hPM6hmF3ca1TXguHo/fVx5TPMaA++pefxOn0sfkVXBk+3HfBPLEw1GDIJEFIXmYu5oo/S364PfwakGX3kHO3XFJC2mL9tZtqL1jPwZj7GjbGpNb9w8VY/seHoXHvm/x9UANy8fHMIBo13dFHFbUjFzpPG0i3Ejuk6P0B9OnUKb/Cn+i9fiDVad9j988/r1Zp+BMJju87CkBzNZAZQGC4jDherPZ1QxI6kqDgdjR6Sr5qFy1FuiwYpBkIiiz7RUjFNPTqH1ZOdmjqm4LTlVP+8LO7FLDRoiAuaYqzpNYRG5mUl6FJj2VrxgPPNLs+GCfugj2K9aDuuBUlIx68KgQ/IgJ32y7t/Wz/Yf8J9LRoRhvTf7DITBdJ+HJbM61mm+PClU9TAa6cpiYMWNZPPQtz/8X1UZJBqMGASJKPocNAfHSMLklMAvxzmX3IEbgozt0XuH8Uiz1xjEI3Em7sm+Dgs6V2ZSrsDN3XwT33v6lPEkUQRV6/4jr8L3Z+jpAYaSltexUw8GlDY+Hw9MCQzfcgL0b0zsy0AexolXUdtqtK1Nm3BTl3OR0iZdh+9nXaeXhN7sMxAG030mogDZU26CnD/zVS+nkqDBiUGQiKLPiZ3+L8eT78CGq/XchXO+ju+kpaL5uIptfef957CpxThm8uir8I0cJ35hzpd4tRNPX5GPW7r5Lv7MwWYjTMbbcM+VX9VzLd6LDTnXYTYOoLkf+ghOT/sWns4N/tgw+yq9VW95Ub57J/aeFU9jUzHXLq7F8jn8JMOGxFaz6tbfDuPR3Q0B5/LEHH0u+nx+celVmD3SOjdHb/YZCIPpPhORlZx64rqZS/Hn3b87p6kk6sqMwW7UQw0uNPw0bS7x3wP96H6UW6s6uNS9M5pz92zfQAHnIgclOi/E+ffDwEYMgkQUhcSX47dfQe1JIz0lj9BzFyYCez/6M35wVLfl7DOH8cybj+Ph971oll22YpKQZs6XOEIEhTOtaO7uLUWYfOSD/WiVI0PGJuu5FlOR3LYPz/xjJ4Zkb8GDz+EHu0SY0iHW9zkkxePQkdfwo7/uM/rh4RR0ju4/Lc/B+Yb/dyIhSZ+LPh+0HUDtwU7TZvRmn4EwmO4zEQWQc1vKOS1/ueMr+Muep/TayMkQuByW+R7PsbmxPN65hKCBYg76U7ksC461xr3oXX9Uozl37/uy1mHT1nxUmp+HGpRIhjSXb5qS7sggaU5xEjk5uFHfD2wU0yHo50RE3fq5pwrPf/CGXhr8Zo43RuIE2tFy1D9gTP+R8wBO9c0xh/YDPRv0ZaQNc0cnQ81M0NN9BzH/5wC0Hm9ArWy7O/JW/OKqTKSJgLJzlwsPvm+83u9SZmLBKH8lz3c+4fRmnwHQV/f5ximX46v2Ar0UPWrf/y/MTs9DYtwovYYovD/vrsQnZxTqpd77n3+UqyAoq4SyyeiF4y5H6og0pI8OM59hsxslq4GVXcKfDB41wEI33FgJp+cZYJUOCbUulOy5Dvlbfw3k2eEqd4uVWXBuWIc520tQWF6vjiAn2l83bwdKlrhgrHGgVPd1VeFzi1wn9ytC42ovFutzqCsrgfdO41hrvOLct3iQ/4B4H3EQxxbxXiKkOeFCwQr5vmKdXM4xzjdjmUecj9gw04lKdTxZnSvU8186sFK8/oy4HqOvqazg+d/XJEPUpgvWiWPKfdegUZyC2yOCWZkNmwqWi/shmddiOf5CBxweOYqvA03Wa0A+7HIOULmXOlfjPYz7JELnQvFjvnw/8VOR11KBDHE/jVBmvQZ9v5aYn40I8Hd6/fdYXvfSRhTqe4OF4vXidP/+vvsi30Nfi++852BH8SbYyjpdl7mPHLAp4J6rp91iRZCIotqug+Yw/+cjBEqHsfMjy9QCPQ1yJ7x4tbf7DmL+z8EfoNKmmpO2H8au8xUCpWO7/J+P5XzC6s0+A2BQ3Wci8vnUJctQMv8xVR3c3VKHP/ztQVUl/F51vnqEbDpqtwUEIT/xpX++rEjlwbHUjurtssIkAsJ6EczmTRLP6+Hy5hpVKzlf5MY6VVUrFcFGBoV1i8QRVlcjf4OubK0FlstmjiJQ+CuQ4StQ9SKgrJTbyNHZRHDMFfuo0Lc+Q1fMKpGx3qyUuVEtQp5c5xTPdjTLwLVGjTRrvJcTeYuKYN+6Q1yFfK0Cnrw5Ia7dVA+PTRxThSf/dCNy7sia2k7Hn6/uWBf15Y3qvKvWOuDeJs+0DpvK7SJIymOtRIbHiMl+8n1WAmp+UHltssJYKqKnDJ/m/TI/GxGrLVO8lNrFdU+Xc1tmqSAuX5fn2LjUeL1KhMQ1m5uMa5evy3VBzjvYPnXb5DylxrqeVDsZBImIqF+kjQzTMXLkVVg2abLx/Pj7eNZ4Rr3A+xy50UkT0HLiA71E1L0zZ0/rZ+dOTikhA+F91zyCBz75DJZe+ZDvMXZkiMjj8apg1JUDueYX/pzFyN+6CXXNO1BtNyfoz4LzTj2WrZw8v8txmtBonftSb7Nzjyf8XJAWWdagtjBXVRPR7IWnwYVC1YfOrJRJDhSpSl86bPZ6NO4VZ+CFCK3W687G4rxqbKptwo6tdr19OFn+/WX1VPfbM6ueAceX12c8C5C1bLFx3tMzkCXvkTx/81rEuc7Jy1LPApmjBeeiJmifTctno6ZWMc7LqLIGavLWw73CeN2s6HV33sH2yS42w2nP+hEyCBIRUb+Ya78LT1x9F75x4RXISdErR9pww4W3wZV9HWarye1aUft+NQczOQe8z5G7ZOI8/L35Jb1EFN6ug7UYN3KqXupbsomobB5qPuRyF2lzRFRzqYpPeDKweFCxuhp2X4gzwpZSWwN3l8piOjJ0ZU7R28haolEZs2ho1GGnDjVBwkwXsrmirFapR5CpVXzqdSXTL31ePjzr14hAa4axyDRtF9e+1nhPWfU0WI4vr8941r0tNbqKKQNpp4qgCJwu6+fhuzfB+St1lXBm6pWdmH0e5cNoFtv9eXfdR4fTDfmo3tjp8wuDfQSJqEeGWh9BGji3zXbinrFhRtU8K8LJnj/iB97oaQI7EPrjPkdrH0Hp8Mn9eO39LUhOHIuE2DD3jYa1Y6cPYmT8aMy54Ha9ZqBY+6AJqk+Y7A9Xg9yAkGXtUyf3EWFKBIp6tZ+//5+qUK1w96CPoLVvoQOOhR5k+PrX6f588pjbcvXAKeKMfX3sBNUPDqqPoHm+8vg182UTRuu1Wd/f6MMXrFlq5z6C1r6RZnUsKzML9qVym2B97Tr3EdTXYOmPibB9BAOvz+yPZ9wzfx9B81qt/Q2zRBDMl+crzkjdd9+9Mfs2GvfbkdZdH0HL63of28bAzyxck14rBkEi6hEGQYrYSBtumz4XC8ZMQFpSkjEAjnC67SB2HdmFF7yv4OXz0m8zyvXDfY7mIGg629GOtj5s9kfRJWmIDSgkA4cv1Ogg6AtJQ0nIAXIGggxc1oFhzj8VJL1FvpDd1xgEiahHGASJot9wCIJE0UFX1WCOOGmuG3pB0KieoUcVrb5nrVLCqJyqcH0eWaqbAdXcfsAgSEQ9wiBIFP0YBImIoh8HiyEiIiIiIhpmGASJiIiIiIiGGQZBIiIiIiKiYYZBkIiIiIiIaJhhECQiIiIiIhpmGASJqGc40DBR9OO/50REUY9BkIh6ZEbKZP2MiKIV/z0nIop+nEcwyp051IKOkyf0EvW3mIQExE2YpJei17ff+D0ajryvl4gommSOmYYfXv4FvURERNGKQTBKnT18CMef34K4KdMQmzxar6V+d/oU2va8h6SrP4GEjJl6ZfQ523EWT3hfVWFQPh8oHWfPouN4q3qcPXYUHadOif9XM1/UPzuTr5uvxYqFs8ZC7KhRiEkZjZiRo8TzZLWOaDiJjYlVIfBztrnqORERRbfoCoLNbpSsBlaWOZCuVjTBXbwGWLUOjjS1Iow6uIq9WOzbt5NaFwrWZ6Ay1OuDzLFNlUhZXKiX6Hw79sfHkfKZu/QS9aXTb72Jtn804HTDTrR53hbh7ySQkAC0tfnynZkFO4sZMQIdJ8X2Qvw0GxIvz0Fi1mwkXJyJWBEAiYiIiIYLBkGfboLgENK+txFnPtqPpOyr9Ro639o/2Isz7+9B0lXz9Brqrbb33hWhT4Q/z1toE+FPVv5iEpPETRbB72zwamSMSILy/9lU8GtrB860IzZ1HJIuuxKJH89G4qUfR+y48XprIiIiouFnGLX9kKGwAAUF4lHsFkud1pXVqDWKrP7JdeLhKnOhZLPYWobMsjrxogiMBS64N5d0OpZcbx7LJUKlub6rdu9uVdWQDxnY+trZo0cQO5ZfcgdS3LgJOCM+B+q59v1NOPHiczj8i4fwYUkRDj74TbT+cQNO/60WHceOqapfx+lTvhAYUAWMi1fPZQiUn0HS5Vdh9BeKMGHNf2KS61GMubcYI+YtYAgkIiKiYS/6gmCDC4VmICsohKvBWN20eQ0al1ahqko8ljZijQh3cl11XqWxbj7gNraEe70Hzg3Gtrl6bSA3qrFSvF4Jp3i2o1kevwKeZZ2PFdyxp36Plh+uUo+Pvnmvehx97Df9EgqJBjtZ4Tv5l1dw5LflOPCt+8TjKzjyu1/iVO1fcKbloNiiQwS/06r/n3iGGFnuk2JjEBMXpwJgTHwc4i66BMmfcmBsyUpMXFchHr9F6rLlGHXjpxE/7QJjHyIiIiJSoi8IZjpRKcOYeoiglmmsbvLWw71CB8QVOvJ5gfx5uiFoTi4c6kkTGpGPObopafZ8Y20gB4oWyf3SYbPXo3FvqGMFN/br30ba757BhB/8FONWrkZSzjXiS++rKhAe+VWZGviCKFp1nDmD0ztfx9E/PIoDK5348GtLcKT8xzi57SW07//AKPGJbWTfvxi1IAKf3FH2A5Q6OhA3cTJGzr8eKUvuxYT/eBiTf/sUJvxbKVLuXCr+fZqLOFb8iIiIiMIaVsOCOdaaAbEK61SQq0f1dt2As7bGX8VrMKp8Ut22cLU9qxDHCiPeNgOJmR/H6Lv/GRMf+pVqtiYHwDj4w1Wq+ShRNDjT/AFOvlqDo7+vwMHv/yv2F92BltJ/x4kX/hvt73v1Vh3oaDstforoJ1JfTHy8qvapEJiYhISsy5Dy6c9g7P0PYtLPH9P/vpRgVP7NiI/i0VmJiIiI+suwCYLZxaWAWREsKIFbBD25zl5eaKzbJut8aks419rhWmJsWxO2tucX/Fg9MzI3X1UJJRkGWRmkoebMh804uWMbjj3xO7Ss/S7233snPlp+Hw7/7Mc4UfUnY5RPva3s5yfJ0IekJPVcBsKEadMxQvy7MPqLyzDxR+WY/OsnMG7FfyD59i8g6fIcxCan6G2JiIiIqLc4j2BYcjCZQtW30JmjV0WgaXMJCr1FqCrO1mt6RgbAA9/5uqp0yP5OPSWrinIutIQLL9Jr6HyTk/if2P4yRl1/k14Tfc4c+BBtuz1of+9dtO0SP3f9A2f1Hy9i4hPQ0d4mn8kany/8QayXzT6h5x6MT5+ChItmIc42U/y+iod9FmISEtVrRERERNR/GASDqCsrwPItemFhaWSBTo40qvseynpgaZUTvYuBBjlcfsuaVSoIyj5PPcEgOPCiLQieaTngC3wq/O1+R41O6xMfL4Jfu9GXT4uJjQ2Y3iF+6gUq6Mnfy7gMI/gx9BERERENDAbBQezII+vQ5t3tay4aKQbBgTdUg6AcoKX9/T2q756cB1H+/skAKEf2DElO2XCmXS/IABiHuAtsqtInfweN4DcDMTHDqksyERER0aDGIDiImVVBObKoHFQmUgyCA2+wB8EugW/Pe2gXj7OHWvQWkVEDucy4SDVjjpehL0M8vyBDv0pEREREgxWD4CAn+wom2GZgzJdL9JruMQhGqg6ughrknmMz3mAGSxDsHPhON+7Cmb1enD0ceeCLSUhA3KQ0xKVNMX5OnGz8nHoB4qdM01sRERER0VDCIDjInaipVnMLTv7F44gZlazXhhdJEAzoBylF0BfyXAfBORfG+WbBuWEdHHqOR5PxWm/6ZfYiCMq+oOszUFnmgJ41MqjzFQRlP72zLQdw5uAB9fNsy0Hx/COcad6H9g/24eyRQ3rL0GRfvtix4xE7OU0Eu+mIFz9jzbAnHrGjU/WWRERERBQtGASHADnR/IjcPKTc/gW9JrxIg2CFrVLPpxiZgQ6CFZ4s1Ns7vX+zGyWrq4EGO4qiLAhaA57/50c4e+AjtH+0Hx2HD6HD0jcvFNl8M3bMGBX24qZMQ7wOeCrkycA3fqLekoiIiIiGCwbBIUBWBY8+9hsk33I7MGKEXhuarAbJvlojF9yg13QVPAjK6TLWAKvMqpt/ec52EQLL69VWgK7M7RWhaFuuP5jJkGQuq4AG5NtdcJnVulAjq1rXZzqDhix5vjXz5VyQFciwVAWN63DCXt7oC3Rynb/aaXmfLueUixpfEJShcDncZmU02LkGrBNr14aeVkQGwaNP/wFJl35MPD+pluXPs6dOAKdOoePEcZw5elT8bEXH8ePoEOvlNmfFNup1NfVCGDExiEkagZiU0YgbNx7xMtClTUVs6lgR+MYZP1Plz3EiCHJkTiIiIiIKxCA4BMh5BeWk3AHD9XdDVn4m/uhneqmrngZBudylImgNfp2XZeha4oLdDEs6hK00Q55v2/RO7xmcEQSrkLvNct7qPRpRFBDoAslzXoOVlu0t5+SrCC6G1zpfZMhz1QExworgoZ8/hLa/1apRNWPi4tARG6vm10N8HGLjRTiLF+tlSEtIQExCkgh2iWrZeC4Cf6Jcn4jYUclGqLMGPBEAiYiIiIh6i0FwCDj29O9xsmarmkYikn6CvekjmLVMhiv0bRDsHKYs1TRFV/+a9LmEq7CZQdA53Qx/TsAXZpu6NPFU52pWMM0qX+dzUkGwAp5MsV2eJRSHOdf0HgTBoTh9BBEREREND5zYa5CT1cDjz21B8u2fj3iwmEjJ8FdVVaUegZXBfiIDmX4/9dBhKrvYWJbVvoICl4hnYaQ5ULTQjYrNbtRsyUL+vM7nLcNdgaoCymNWLsvS68Or9zbpZ1qIcyUiIiIiigYMgoNc63OyMtWBETlzjRX9Kh02ez2qt+tQVLsJrgbjqZR+gV0/06ZnIGtLjQ5uTXCv71RFs1LbVsDdrJdrXXDVyidiv83GEbKLS+GAB15zmxCy5ztQX+6Ce2FR1+akzV5xBBEWVbBtwo6tZr/GUOwoKquE07McBWU6goY8V0G+pp8SEREREQ1VDIKDnGwSOjI3v8+rgaFk3+kEygtRUFCAgm0ZcGbqF6ScXDi2iMBUUGKEJF2dWy63LVgD5DmM7YIR265ba4dridxWHjtXNwNNxxxUGOsKlsOzbGXYvoJKzmJxXllw3mk2BLXodE6N9khiWzocZhgsdqMp5LkKaXOQDxcKxXpfOCQiIiIiGmLYR3AQM+cQnPjQr9Qk3pHihPIDj30EiYiIiGgwY0VwEJPVwKQrr+lRCCQiIiIiIuoOg+Agdfw5N06/9SZS7ohsEnkiIiIiIqJIMQgOQu3e3Tj29B/USKHxthl6LRERERERUd+IPAjKOdiCDZAh51WTA2zoxXDk3G4lmyPZMhg5p50evEM+InzP8OQx9cAn3enBdZ4LGQIP/nCVag6acjurgURERERE1Pd6VhHMzIJnvTUMySkDPMjqNKvAuZKThwcfkTELzg3GvG6ldhc29feojTL8muEvx9mvc8nJ+QLlwDAHvvN1JF76cYz/9mr9ChERERERUd/qWRC05yMf1dhhVtCad6AxLx92j7EoK35mxc6o/MnJvV1wiWDnm6NNMSb9VtvISpveR4Y/eYzlWwD3CvMYoWQhY7r4oSuV/vcUrMcsc/nPxVLRqyvrXAk0zsnYT05qLpaXuFDfIKcKEMvyfcxrsLynbwJ0+Z5lbl/VMty5n/lov+r/d+KVrWh9+g9oWbMK+++7Cydrt2PMvcUY+/Vvn7fpIoiIiIiIaPjpYR9BGxxL7b4Jx+s2ViNjnk09l9IXrVPVuqqqUti37tChyw3MF+uKzTnfZHPMCmRsqMK6RU1wrc9ApdqnEhnrXWgSxyhdCDjWytc719/qfXO71cxfB0eaONbqRhSp/atQ5F0jwp1RpTQrh7ny/SOSDac+TuUyD2pqxfIGJ7IyneL8nOJVk3zPauTr41etBZabAXFLNbBKrBP7wXf9XR15ZB1afrhK/ZRTRMRNmKwC4KSHfq3mDOwLMfonDZyYGH4KRERERDQ49XywmJzFyPfKkFOHGhQFTP4tm3QaVbLllvjlQK45GbdQX74c1Xl60vBmLzyq4ib3KYSrwdgmNN00dK0D7m0yfDWhscGcPLxAVRLVOuRjjj6v7PlhJjm3slT5Csvr9cpgAo+vJln3eI3Qt1DfjzQb7A2Nxrogxn17NdJ+94x6yDkCx3y5pE8njY+fOh2n3/2HXqKB0OZ5S30ORERERESDUc+DINIxx1aNTWU1wHx/nUw2razxyOqZURHL0ms7y1pWiSKvCH1m/z5VcdPVtYDKWxgijDo9FbpppwOlvv1llVCsavA3X63bZqkI+sKZOFcVGv2atlfDvtY4jqxIhpaODGvz2NoauO22fus72BuxqePQcewo2nYxDA4Eo+nv35FwSah/C4iIiIiIBlZMh6CfhycrZhttWKeaeMr+dl4sVoOnmM/nYEexruplZokgmI+VZTZsKqhBrg54sv/fGqzEukWAW25rL0WlrcJfgVtYajQhlf3tVrhVaPQ3D5VNStcAq3TYU9sApbJppthWkaFSnpPeX3IsdMBjW6yOI9/feC+HWO9Bxp0rgdX6mHv9+2SJ87cvXQdnjnxPeU0ibG7IQIV5/fJeyP6DamsZRMX1yffclqubwMr+hv7rHignXnoeZz6UiZVNFM+fDsQkpyD5ltv1MhERERHR4BN5EBySjCDXuLRKhDq9ioiIiIiIaJiLyiAo+yoa/QUFs8pIRERERERESpRXBImIiIiIiKizXgwWQ0REREREREMZgyAREREREdEwwyBIREREREQ0rAD/H5K5bPHj5gA5AAAAAElFTkSuQmCC;" vertex="1" parent="1">
          <mxGeometry x="500" y="-45" width="442.2" height="65" as="geometry" />
        </mxCell>
        <mxCell id="VCK1Q4srkvo5amAOdL8o-46" style="edgeStyle=orthogonalEdgeStyle;rounded=0;orthogonalLoop=1;jettySize=auto;html=1;exitX=0.5;exitY=1;exitDx=0;exitDy=0;" edge="1" parent="1" source="VCK1Q4srkvo5amAOdL8o-26" target="VCK1Q4srkvo5amAOdL8o-26">
          <mxGeometry relative="1" as="geometry" />
        </mxCell>
      </root>
    </mxGraphModel>
  </diagram>
</mxfile>
